<?xml version="1.0" encoding="UTF-8"?>
<!DOCTYPE svg PUBLIC "-//W3C//DTD SVG 1.1//EN" "http://www.w3.org/Graphics/SVG/1.1/DTD/svg11.dtd">
<svg version="1.2" width="69mm" height="26.4mm" viewBox="0 0 6900 2640" preserveAspectRatio="xMidYMid" fill-rule="evenodd" stroke-width="28.222" stroke-linejoin="round" xmlns="http://www.w3.org/2000/svg" xmlns:ooo="http://xml.openoffice.org/svg/export" xmlns:xlink="http://www.w3.org/1999/xlink" xmlns:presentation="http://sun.com/xmlns/staroffice/presentation" xmlns:smil="http://www.w3.org/2001/SMIL20/" xmlns:anim="urn:oasis:names:tc:opendocument:xmlns:animation:1.0" xmlns:svg="urn:oasis:names:tc:opendocument:xmlns:svg-compatible:1.0" xml:space="preserve">
 <defs class="ClipPathGroup">
  <clipPath id="presentation_clip_path" clipPathUnits="userSpaceOnUse">
   <rect x="0" y="0" width="6900" height="2640"/>
  </clipPath>
  <clipPath id="presentation_clip_path_shrink" clipPathUnits="userSpaceOnUse">
   <rect x="6" y="2" width="6887" height="2635"/>
  </clipPath>
 </defs>
 <defs class="TextShapeIndex">
  <g ooo:slide="id1" ooo:id-list="id3"/>
 </defs>
 <defs class="EmbeddedBulletChars">
  <g id="bullet-char-template-57356" transform="scale(0.00048828125,-0.00048828125)">
   <path d="M 580,1141 L 1163,571 580,0 -4,571 580,1141 Z"/>
  </g>
  <g id="bullet-char-template-57354" transform="scale(0.00048828125,-0.00048828125)">
   <path d="M 8,1128 L 1137,1128 1137,0 8,0 8,1128 Z"/>
  </g>
  <g id="bullet-char-template-10146" transform="scale(0.00048828125,-0.00048828125)">
   <path d="M 174,0 L 602,739 174,1481 1456,739 174,0 Z M 1358,739 L 309,1346 659,739 1358,739 Z"/>
  </g>
  <g id="bullet-char-template-10132" transform="scale(0.00048828125,-0.00048828125)">
   <path d="M 2015,739 L 1276,0 717,0 1260,543 174,543 174,936 1260,936 717,1481 1274,1481 2015,739 Z"/>
  </g>
  <g id="bullet-char-template-10007" transform="scale(0.00048828125,-0.00048828125)">
   <path d="M 0,-2 C -7,14 -16,27 -25,37 L 356,567 C 262,823 215,952 215,954 215,979 228,992 255,992 264,992 276,990 289,987 310,991 331,999 354,1012 L 381,999 492,748 772,1049 836,1024 860,1049 C 881,1039 901,1025 922,1006 886,937 835,863 770,784 769,783 710,716 594,584 L 774,223 C 774,196 753,168 711,139 L 727,119 C 717,90 699,76 672,76 641,76 570,178 457,381 L 164,-76 C 142,-110 111,-127 72,-127 30,-127 9,-110 8,-76 1,-67 -2,-52 -2,-32 -2,-23 -1,-13 0,-2 Z"/>
  </g>
  <g id="bullet-char-template-10004" transform="scale(0.00048828125,-0.00048828125)">
   <path d="M 285,-33 C 182,-33 111,30 74,156 52,228 41,333 41,471 41,549 55,616 82,672 116,743 169,778 240,778 293,778 328,747 346,684 L 369,508 C 377,444 397,411 428,410 L 1163,1116 C 1174,1127 1196,1133 1229,1133 1271,1133 1292,1118 1292,1087 L 1292,965 C 1292,929 1282,901 1262,881 L 442,47 C 390,-6 338,-33 285,-33 Z"/>
  </g>
  <g id="bullet-char-template-9679" transform="scale(0.00048828125,-0.00048828125)">
   <path d="M 813,0 C 632,0 489,54 383,161 276,268 223,411 223,592 223,773 276,916 383,1023 489,1130 632,1184 813,1184 992,1184 1136,1130 1245,1023 1353,916 1407,772 1407,592 1407,412 1353,268 1245,161 1136,54 992,0 813,0 Z"/>
  </g>
  <g id="bullet-char-template-8226" transform="scale(0.00048828125,-0.00048828125)">
   <path d="M 346,457 C 273,457 209,483 155,535 101,586 74,649 74,723 74,796 101,859 155,911 209,963 273,989 346,989 419,989 480,963 531,910 582,859 608,796 608,723 608,648 583,586 532,535 482,483 420,457 346,457 Z"/>
  </g>
  <g id="bullet-char-template-8211" transform="scale(0.00048828125,-0.00048828125)">
   <path d="M -4,459 L 1135,459 1135,606 -4,606 -4,459 Z"/>
  </g>
  <g id="bullet-char-template-61548" transform="scale(0.00048828125,-0.00048828125)">
   <path d="M 173,740 C 173,903 231,1043 346,1159 462,1274 601,1332 765,1332 928,1332 1067,1274 1183,1159 1299,1043 1357,903 1357,740 1357,577 1299,437 1183,322 1067,206 928,148 765,148 601,148 462,206 346,322 231,437 173,577 173,740 Z"/>
  </g>
 </defs>
 <g>
  <g id="id2" class="Master_Slide">
   <g id="bg-id2" class="Background"/>
   <g id="bo-id2" class="BackgroundObjects"/>
  </g>
 </g>
 <g class="SlideGroup">
  <g>
   <g id="container-id1">
    <g id="id1" class="Slide" clip-path="url(#presentation_clip_path)">
     <g class="Page">
      <g class="Graphic">
       <g id="id3">
        <rect class="BoundingBox" stroke="none" fill="none" x="-8" y="-8" width="8334" height="3334"/>
        <path fill="rgb(21,66,115)" stroke="none" d="M 5,5 L 1328,5 1328,2650 5,2650 5,5 Z"/>
        <path fill="rgb(255,255,255)" stroke="none" d="M 690,2052 L 667,2052 667,1988 690,1988 690,2052 690,2052 Z M 794,1770 L 771,1770 771,1706 794,1706 794,1770 794,1770 Z M 368,1660 C 366,1660 354,1660 354,1662 354,1665 360,1664 368,1665 386,1668 394,1678 407,1678 418,1678 430,1670 426,1653 425,1650 423,1651 423,1652 421,1660 412,1664 402,1664 390,1664 387,1660 368,1660 L 368,1660 Z M 241,1724 C 243,1727 265,1755 232,1766 230,1766 230,1767 232,1769 257,1779 268,1760 268,1760 281,1788 262,1804 262,1804 264,1809 276,1818 294,1822 301,1818 311,1811 314,1801 314,1801 319,1813 315,1825 365,1829 383,1789 422,1797 423,1797 423,1796 423,1795 423,1770 408,1725 360,1716 312,1706 325,1687 325,1687 345,1686 357,1695 357,1695 361,1689 355,1682 355,1682 357,1680 358,1672 358,1672 336,1672 330,1667 330,1667 326,1653 336,1634 369,1655 378,1647 377,1635 377,1635 380,1634 381,1630 381,1629 381,1623 354,1608 348,1606 346,1598 335,1586 304,1591 289,1592 278,1588 283,1580 284,1578 281,1578 280,1579 276,1583 271,1593 284,1599 299,1607 300,1621 300,1623 300,1626 296,1627 296,1624 289,1599 255,1594 235,1607 236,1620 251,1629 258,1629 263,1629 269,1624 269,1618 269,1615 271,1615 271,1618 275,1626 262,1645 243,1634 223,1653 231,1678 233,1686 236,1702 228,1718 214,1711 213,1710 212,1710 212,1712 213,1721 226,1733 241,1724 L 241,1724 Z M 349,1625 C 340,1635 325,1633 321,1616 340,1615 348,1617 349,1625 L 349,1625 Z M 933,1664 C 923,1664 914,1660 912,1652 912,1651 910,1650 909,1653 904,1670 917,1678 928,1678 941,1678 948,1668 967,1665 975,1664 981,1665 981,1662 981,1660 969,1660 967,1660 948,1660 945,1664 933,1664 L 933,1664 Z M 1122,1711 C 1122,1710 1122,1710 1121,1710 1106,1717 1099,1702 1102,1686 1104,1677 1112,1653 1092,1633 1073,1644 1060,1626 1063,1617 1064,1615 1066,1615 1066,1617 1066,1624 1072,1628 1076,1628 1084,1628 1098,1619 1099,1606 1080,1593 1046,1598 1039,1623 1038,1626 1035,1626 1035,1623 1035,1621 1036,1606 1050,1599 1064,1592 1059,1582 1055,1579 1054,1578 1051,1578 1052,1579 1057,1588 1046,1592 1031,1590 1000,1586 989,1598 987,1606 981,1607 954,1623 954,1628 954,1630 955,1634 958,1635 958,1635 957,1646 966,1654 999,1634 1009,1653 1005,1666 1005,1666 999,1671 976,1671 976,1671 977,1679 979,1682 979,1682 974,1688 978,1694 978,1694 989,1685 1009,1686 1009,1686 1022,1706 975,1715 927,1724 911,1770 911,1794 911,1796 912,1796 913,1796 952,1789 969,1829 1020,1824 1015,1812 1020,1800 1020,1800 1024,1811 1034,1818 1041,1821 1059,1817 1070,1809 1073,1803 1073,1803 1054,1788 1066,1759 1066,1759 1078,1778 1103,1768 1105,1767 1104,1766 1103,1765 1070,1754 1091,1726 1094,1723 1109,1733 1122,1721 1122,1711 L 1122,1711 Z M 1013,1616 C 1010,1633 995,1635 986,1625 986,1617 995,1615 1013,1616 L 1013,1616 Z M 659,1333 C 659,1338 660,1341 662,1343 665,1348 664,1350 663,1351 662,1353 659,1353 655,1350 653,1349 649,1347 645,1347 638,1347 634,1352 634,1356 634,1360 638,1365 645,1365 649,1365 653,1363 655,1361 659,1359 662,1359 663,1360 664,1362 662,1376 660,1388 649,1391 643,1400 643,1406 643,1420 658,1428 667,1433 676,1429 692,1420 692,1406 692,1400 686,1390 674,1388 673,1377 671,1362 672,1360 673,1359 676,1359 680,1361 682,1363 686,1365 690,1365 697,1365 701,1360 701,1356 701,1352 697,1347 690,1347 686,1347 682,1349 680,1350 676,1353 673,1353 672,1351 671,1350 670,1348 673,1343 675,1341 676,1338 676,1333 676,1326 671,1323 667,1323 663,1323 659,1326 659,1333 L 659,1333 Z M 667,1441 C 658,1441 650,1449 650,1459 650,1468 658,1476 667,1476 677,1476 685,1468 685,1459 685,1449 677,1441 667,1441 L 667,1441 Z M 667,1610 C 738,1610 778,1624 778,1624 778,1588 778,1568 798,1571 787,1541 835,1529 835,1491 835,1465 817,1462 812,1462 796,1462 798,1472 785,1472 783,1472 781,1472 781,1473 781,1478 785,1485 791,1485 800,1485 800,1477 806,1477 809,1477 813,1479 813,1488 813,1504 802,1523 789,1537 786,1533 782,1530 777,1530 769,1530 763,1538 763,1548 763,1552 763,1554 765,1557 760,1560 757,1561 754,1561 748,1561 739,1559 739,1546 739,1518 777,1493 777,1457 777,1439 766,1423 742,1423 716,1423 721,1446 699,1446 698,1446 697,1446 697,1447 697,1449 701,1462 712,1462 724,1462 728,1441 739,1441 743,1441 749,1443 749,1457 749,1468 743,1487 735,1504 732,1501 728,1499 724,1499 715,1499 708,1508 708,1519 708,1526 710,1533 715,1537 710,1544 704,1550 696,1550 681,1550 674,1541 674,1532 674,1521 693,1518 693,1502 693,1491 686,1485 679,1485 672,1485 668,1489 667,1489 667,1489 663,1485 655,1485 649,1485 642,1491 642,1502 642,1518 660,1521 660,1532 660,1541 654,1550 639,1550 631,1550 625,1544 619,1537 624,1532 627,1526 627,1519 627,1508 620,1499 610,1499 606,1499 602,1501 599,1504 591,1486 586,1468 586,1457 586,1443 592,1441 596,1441 607,1441 610,1462 623,1462 634,1462 638,1449 638,1447 638,1446 637,1446 636,1446 614,1446 619,1423 593,1423 569,1423 558,1439 558,1457 558,1493 595,1518 595,1546 595,1559 587,1561 581,1561 578,1561 574,1560 570,1557 571,1554 572,1552 572,1548 572,1538 565,1530 558,1530 553,1530 549,1533 546,1537 533,1523 522,1504 522,1488 522,1479 526,1477 529,1477 535,1477 535,1485 544,1485 550,1485 554,1478 554,1473 554,1472 552,1472 550,1472 537,1472 539,1462 523,1462 518,1462 500,1465 500,1491 500,1530 548,1541 537,1571 557,1568 557,1588 557,1624 557,1624 597,1610 667,1610 L 667,1610 Z M 538,1663 C 519,1667 505,1671 499,1673 499,1665 502,1657 510,1655 511,1655 511,1653 510,1653 493,1642 484,1663 484,1664 478,1664 468,1665 468,1674 468,1698 412,1712 399,1714 422,1723 432,1752 432,1752 449,1735 468,1720 472,1720 477,1720 478,1726 479,1729 479,1730 480,1730 481,1730 489,1717 485,1714 484,1710 484,1707 485,1696 497,1697 L 497,1861 491,1862 C 488,1862 464,1842 436,1823 409,1804 394,1815 363,1832 322,1855 281,1834 281,1834 246,1860 234,1933 234,1933 226,1935 215,1939 204,1939 177,1939 172,1922 172,1913 172,1871 224,1853 224,1812 224,1802 220,1762 170,1762 163,1762 125,1762 125,1762 106,1762 102,1749 99,1744 98,1742 96,1743 97,1744 98,1748 95,1753 95,1764 95,1780 105,1790 123,1790 131,1790 139,1788 141,1786 143,1785 144,1787 143,1788 135,1797 135,1815 138,1819 139,1820 140,1819 140,1819 144,1801 161,1784 183,1784 210,1784 210,1807 210,1813 210,1846 152,1871 152,1917 152,1963 201,1973 229,1966 227,2012 174,2028 172,1995 172,1993 171,1993 170,1995 164,2012 166,2026 187,2031 188,2031 188,2032 186,2033 166,2046 177,2097 178,2112 180,2134 158,2131 156,2131 155,2130 154,2131 156,2133 171,2151 190,2134 190,2134 204,2139 196,2151 186,2157 184,2158 185,2159 186,2159 188,2160 211,2161 214,2144 224,2155 239,2151 242,2149 246,2147 267,2140 269,2163 269,2165 270,2163 271,2163 286,2143 270,2131 260,2129 261,2128 273,2118 285,2132 285,2133 286,2134 286,2131 287,2106 267,2104 254,2115 253,2112 249,2098 269,2099 269,2099 270,2098 269,2097 254,2081 241,2096 238,2099 231,2108 214,2104 212,2104 218,2017 294,2048 305,2006 305,2004 307,2004 307,2005 309,2016 335,2017 340,1997 340,1996 340,1995 339,1996 317,2018 267,1948 335,1892 394,1844 446,1871 466,1887 467,1893 462,1896 460,1897 459,1897 458,1898 460,1898 466,1901 473,1900 477,1895 489,1903 479,1915 474,1917 472,1918 473,1919 474,1919 485,1921 495,1910 495,1903 L 497,1904 497,1953 C 497,2024 578,2034 668,2093 757,2033 838,2024 838,1953 L 838,1904 840,1903 C 840,1910 849,1921 861,1919 862,1919 863,1918 861,1917 856,1914 845,1903 858,1895 862,1900 869,1901 875,1898 877,1898 876,1897 875,1897 873,1896 868,1893 869,1887 889,1871 941,1844 1000,1892 1068,1948 1018,2017 996,1996 995,1994 995,1996 995,1997 1000,2017 1026,2016 1028,2005 1029,2004 1030,2004 1030,2006 1041,2048 1117,2017 1123,2104 1121,2104 1104,2108 1097,2099 1094,2096 1081,2081 1066,2097 1065,2098 1066,2099 1066,2099 1086,2098 1082,2112 1081,2115 1068,2104 1048,2106 1049,2131 1049,2133 1050,2133 1050,2132 1062,2118 1074,2128 1075,2129 1066,2131 1049,2143 1064,2163 1065,2163 1066,2165 1066,2163 1068,2140 1089,2147 1093,2149 1096,2151 1111,2155 1121,2144 1124,2161 1147,2160 1149,2159 1150,2159 1150,2158 1149,2157 1140,2151 1131,2139 1145,2134 1145,2134 1164,2151 1179,2133 1181,2131 1180,2130 1179,2131 1177,2131 1155,2134 1157,2112 1158,2097 1169,2046 1149,2033 1147,2032 1147,2031 1148,2031 1169,2026 1171,2012 1165,1995 1164,1993 1163,1994 1163,1995 1161,2028 1108,2012 1106,1966 1135,1973 1183,1963 1183,1917 1183,1871 1125,1846 1125,1813 1125,1807 1125,1784 1152,1784 1174,1784 1191,1801 1195,1819 1195,1819 1196,1820 1197,1819 1200,1814 1200,1797 1192,1788 1191,1787 1192,1785 1194,1786 1196,1788 1204,1790 1212,1790 1230,1790 1240,1780 1240,1764 1240,1753 1236,1748 1238,1744 1239,1743 1237,1742 1236,1744 1233,1749 1228,1762 1210,1762 1210,1762 1172,1762 1165,1762 1115,1762 1111,1803 1111,1812 1111,1853 1163,1871 1163,1913 1163,1922 1158,1939 1131,1939 1120,1939 1108,1935 1101,1933 1101,1933 1090,1860 1054,1834 1054,1834 1013,1855 972,1832 941,1815 926,1804 898,1823 871,1842 847,1862 844,1862 L 837,1861 837,1697 C 850,1696 851,1707 850,1710 850,1714 846,1717 854,1730 855,1731 856,1730 856,1729 856,1726 858,1720 862,1720 867,1720 886,1735 903,1752 903,1752 912,1723 935,1714 922,1712 866,1698 866,1674 866,1665 857,1664 851,1664 851,1663 841,1642 825,1653 824,1653 824,1655 825,1655 832,1657 836,1665 836,1673 819,1668 750,1648 667,1648 627,1648 590,1653 561,1659 L 561,1715 538,1715 538,1663 538,1663 Z M 386,2244 C 380,2242 376,2238 376,2230 L 376,2195 C 366,2191 338,2181 283,2181 237,2181 223,2191 222,2195 L 210,2262 C 210,2262 228,2245 295,2249 375,2254 457,2301 457,2251 L 457,2221 C 395,2221 386,2242 386,2244 L 386,2244 Z M 877,2221 L 877,2251 C 877,2301 960,2254 1040,2249 1107,2245 1125,2262 1125,2262 L 1113,2195 C 1112,2191 1098,2181 1052,2181 997,2181 969,2191 959,2195 L 959,2230 C 959,2238 955,2242 949,2244 949,2242 940,2221 877,2221 L 877,2221 Z M 667,2191 C 796,2191 927,2198 944,2217 945,2219 946,2217 946,2216 L 946,2148 C 946,2128 811,2116 667,2116 523,2116 389,2128 389,2148 L 389,2216 C 389,2217 389,2218 390,2217 408,2198 539,2191 667,2191 L 667,2191 Z M 553,1869 L 540,1866 539,1867 523,1861 C 523,1861 535,1861 537,1861 538,1861 538,1860 538,1860 532,1853 526,1848 526,1848 526,1848 532,1851 541,1854 542,1854 542,1853 542,1853 537,1847 532,1838 532,1838 532,1838 544,1846 546,1848 547,1848 548,1848 547,1847 544,1839 540,1830 540,1830 L 554,1843 C 554,1843 555,1843 555,1842 553,1836 551,1825 551,1825 L 561,1839 C 561,1840 562,1840 562,1839 562,1836 562,1823 562,1823 562,1823 567,1833 568,1838 569,1839 569,1839 570,1837 571,1836 575,1825 575,1825 L 576,1842 573,1842 571,1862 C 590,1857 614,1824 633,1824 655,1824 663,1850 704,1837 714,1852 718,1865 722,1883 738,1898 760,1893 760,1878 760,1856 737,1852 737,1830 737,1820 744,1806 762,1806 772,1806 787,1810 795,1810 805,1810 808,1803 809,1800 809,1798 812,1798 812,1800 812,1802 813,1805 813,1810 813,1824 793,1826 790,1824 789,1823 789,1824 789,1825 792,1828 792,1836 788,1841 787,1842 787,1842 787,1841 785,1831 773,1819 763,1819 759,1819 751,1821 751,1830 751,1842 776,1854 776,1880 776,1907 750,1914 723,1907 723,1932 762,1947 763,1929 763,1928 763,1929 764,1929 769,1937 767,1943 759,1946 766,1949 767,1962 769,1971 772,1983 785,1976 786,1976 786,1975 787,1976 786,1976 781,1989 768,1984 768,1984 762,1989 770,1993 776,1995 777,1995 777,1996 776,1996 772,1998 762,2001 757,1993 754,2001 747,2001 744,2001 739,2001 736,2006 737,2013 737,2013 737,2014 736,2013 725,2006 731,1997 736,1994 735,1994 727,1990 723,2000 723,2001 723,2001 722,2000 717,1986 728,1982 736,1985 736,1984 732,1977 721,1979 721,1979 720,1979 721,1978 722,1974 727,1968 737,1974 742,1977 751,1973 751,1972 734,1938 701,1967 694,1940 693,1939 693,1939 692,1940 690,1946 676,1947 673,1935 673,1935 673,1934 674,1935 676,1937 681,1939 687,1930 691,1925 691,1917 691,1912 691,1891 671,1856 638,1856 618,1856 596,1864 580,1876 L 595,1880 C 593,1895 578,1904 565,1900 L 567,1883 C 565,1883 559,1885 556,1890 556,1890 555,1890 555,1890 553,1880 561,1875 563,1874 563,1873 563,1873 563,1873 555,1873 552,1878 550,1880 550,1880 550,1880 550,1880 550,1878 549,1873 553,1869 L 553,1869 Z M 598,1988 C 592,1995 587,1988 579,1988 572,1988 571,1994 571,1997 571,1997 571,1997 570,1997 562,1986 571,1980 577,1979 576,1978 568,1973 563,1980 563,1981 562,1980 562,1980 562,1966 573,1965 580,1971 581,1966 578,1962 572,1962 571,1962 571,1962 572,1961 574,1959 576,1958 579,1958 586,1958 587,1967 593,1967 600,1967 611,1957 612,1956 611,1956 604,1936 605,1925 605,1924 605,1924 605,1924 601,1926 592,1926 592,1915 592,1914 593,1914 593,1915 597,1920 604,1914 607,1910 610,1906 629,1879 654,1879 660,1879 667,1882 673,1886 664,1897 673,1907 679,1905 680,1905 680,1906 680,1906 646,1919 631,1924 631,1952 631,1966 636,1974 645,1972 645,1972 646,1972 645,1973 642,1976 639,1978 636,1978 629,1978 627,1974 624,1974 620,1974 608,1981 608,1988 608,1990 609,1993 613,1996 614,1996 613,1996 613,1996 610,1996 600,1997 598,1988 L 598,1988 Z M 685,1717 C 675,1716 668,1718 669,1722 674,1727 680,1726 685,1717 L 685,1717 Z M 647,1742 C 654,1741 662,1741 663,1742 664,1742 664,1744 663,1744 648,1746 647,1753 637,1753 631,1753 624,1746 626,1737 627,1735 628,1735 628,1737 629,1741 635,1746 647,1742 L 647,1742 Z M 448,2083 C 458,2095 468,2083 481,2083 488,2083 496,2085 497,2099 497,2099 498,2099 498,2099 513,2079 496,2068 487,2066 489,2064 503,2056 512,2069 513,2069 514,2069 514,2068 514,2043 495,2041 481,2052 478,2042 486,2036 495,2036 496,2036 497,2035 496,2034 480,2016 467,2039 464,2043 458,2052 434,2035 424,2025 424,2025 445,2002 445,1982 445,1981 445,1979 445,1978 445,1978 445,1978 445,1978 448,1979 450,1980 453,1980 458,1980 467,1978 467,1961 467,1960 467,1960 466,1961 464,1964 461,1965 459,1965 442,1965 406,1908 364,1908 353,1908 332,1916 321,1927 326,1930 327,1937 327,1941 326,1948 320,1952 314,1953 313,1954 313,1955 314,1955 336,1963 375,1978 384,1985 394,1994 392,2011 386,2035 380,2057 368,2054 363,2054 362,2054 362,2054 362,2054 368,2061 375,2064 380,2064 391,2064 396,2057 401,2057 411,2057 431,2071 431,2081 431,2087 427,2093 421,2096 420,2097 420,2097 421,2097 425,2098 444,2099 448,2083 L 448,2083 Z M 914,2097 C 915,2097 915,2097 914,2096 909,2092 904,2087 904,2081 904,2071 924,2057 934,2057 940,2057 944,2064 955,2064 960,2064 967,2061 973,2054 973,2054 973,2053 972,2054 968,2054 955,2057 949,2035 943,2011 941,1994 951,1985 960,1978 999,1963 1021,1955 1022,1955 1022,1954 1021,1953 1015,1952 1009,1948 1008,1941 1008,1937 1009,1930 1014,1927 1003,1916 982,1908 971,1908 929,1908 893,1965 876,1965 874,1965 871,1964 868,1961 868,1960 867,1960 867,1961 867,1978 877,1980 881,1980 884,1980 887,1979 889,1978 890,1978 890,1978 890,1978 890,1979 890,1981 890,1982 890,2002 911,2025 911,2025 901,2035 877,2051 871,2043 868,2039 855,2016 838,2034 838,2035 838,2036 839,2036 849,2036 856,2042 854,2052 840,2041 821,2043 821,2068 821,2069 822,2069 823,2069 832,2056 846,2064 848,2066 838,2067 822,2079 836,2099 837,2099 837,2099 837,2099 839,2086 847,2083 853,2083 867,2083 876,2095 887,2083 891,2099 910,2098 914,2097 L 914,2097 Z M 573,1767 C 571,1769 567,1767 565,1766 565,1766 565,1766 565,1767 566,1769 570,1776 577,1776 580,1776 584,1775 585,1773 585,1773 610,1781 622,1784 617,1790 614,1798 613,1806 604,1800 564,1779 564,1779 L 552,1796 C 550,1798 540,1791 542,1789 L 551,1776 C 548,1773 541,1774 539,1775 538,1775 538,1775 538,1775 540,1772 544,1764 556,1768 556,1761 545,1763 542,1764 542,1764 542,1764 542,1764 545,1760 554,1753 563,1759 L 567,1753 559,1744 564,1737 570,1745 616,1682 C 617,1681 626,1678 630,1677 630,1681 630,1690 629,1692 L 584,1755 594,1758 589,1766 577,1760 573,1767 573,1767 Z M 733,1757 C 733,1763 737,1771 744,1769 745,1768 745,1769 745,1769 744,1775 732,1781 727,1774 722,1783 724,1793 734,1798 734,1798 734,1799 734,1799 727,1804 718,1803 714,1794 706,1801 707,1814 712,1818 712,1818 689,1832 668,1822 655,1816 644,1807 626,1809 628,1784 641,1778 663,1774 682,1771 684,1762 681,1756 675,1755 664,1760 664,1760 662,1757 665,1753 665,1753 664,1752 663,1747 663,1747 676,1747 678,1744 678,1744 681,1731 667,1730 657,1737 652,1733 653,1727 653,1727 651,1726 650,1724 650,1723 650,1720 666,1712 669,1711 671,1706 676,1700 692,1702 694,1697 691,1682 689,1678 688,1676 689,1676 690,1677 696,1680 701,1693 705,1694 705,1694 723,1684 724,1685 725,1685 728,1705 728,1705 730,1708 744,1705 750,1708 752,1709 752,1710 750,1710 746,1711 731,1717 729,1721 737,1734 733,1752 733,1757 L 733,1757 Z"/>
        <path fill="rgb(0,0,0)" stroke="none" d="M 1630,1711 C 1645,1706 1653,1699 1654,1687 L 1672,1477 1649,1470 1649,1458 C 1667,1456 1690,1455 1704,1455 L 1719,1455 1783,1654 1784,1654 1846,1455 1864,1455 C 1879,1455 1897,1456 1914,1458 L 1914,1470 1888,1476 1906,1702 1930,1706 1930,1715 C 1920,1720 1906,1722 1891,1722 1872,1722 1860,1721 1845,1718 L 1845,1710 C 1863,1706 1870,1696 1870,1679 L 1859,1493 1859,1493 1786,1720 1770,1723 1696,1493 1695,1494 1683,1699 1709,1706 1709,1715 C 1692,1720 1682,1722 1662,1722 1653,1722 1641,1720 1631,1718 L 1631,1711 1630,1711 Z"/>
        <path fill="rgb(0,0,0)" stroke="none" d="M 1984,1689 L 1984,1551 1958,1539 1958,1531 C 1976,1525 1995,1523 2006,1523 L 2020,1523 2018,1545 2018,1701 2041,1707 2041,1715 C 2027,1720 2014,1722 1993,1722 1983,1722 1972,1721 1962,1718 L 1962,1711 C 1973,1707 1984,1699 1984,1689 Z M 1979,1462 C 1979,1449 1988,1438 2003,1438 2014,1438 2024,1447 2024,1460 2024,1474 2014,1486 2001,1486 1989,1485 1979,1475 1979,1462 Z"/>
        <path fill="rgb(0,0,0)" stroke="none" d="M 2094,1689 L 2094,1551 2068,1539 2068,1530 C 2087,1525 2105,1523 2117,1523 L 2127,1523 2127,1545 C 2141,1531 2164,1522 2187,1522 2222,1522 2245,1544 2245,1586 L 2245,1701 2266,1707 2266,1715 C 2255,1719 2241,1722 2223,1722 2214,1722 2205,1721 2196,1718 L 2196,1711 C 2207,1707 2211,1699 2211,1684 L 2211,1606 C 2211,1566 2194,1551 2170,1551 2153,1551 2137,1557 2128,1564 L 2128,1701 2151,1707 2151,1715 C 2137,1720 2124,1722 2103,1722 2094,1722 2082,1721 2073,1718 L 2073,1711 C 2083,1707 2094,1699 2094,1689 Z"/>
        <path fill="rgb(0,0,0)" stroke="none" d="M 2298,1711 C 2309,1707 2320,1699 2320,1689 L 2320,1551 2294,1539 2294,1531 C 2312,1525 2331,1523 2343,1523 L 2356,1523 2354,1545 2354,1701 2377,1707 2377,1715 C 2363,1720 2350,1722 2329,1722 2320,1722 2308,1721 2299,1718 L 2299,1711 2298,1711 Z M 2315,1462 C 2315,1449 2324,1438 2339,1438 2350,1438 2360,1447 2360,1460 2360,1474 2350,1486 2337,1486 2325,1485 2315,1475 2315,1462 L 2315,1462 Z"/>
        <path fill="rgb(0,0,0)" stroke="none" d="M 2409,1674 C 2427,1691 2445,1700 2467,1700 2490,1700 2501,1689 2501,1674 2501,1660 2493,1651 2466,1639 L 2446,1631 C 2422,1620 2409,1603 2409,1580 2409,1548 2437,1520 2480,1520 2513,1520 2526,1529 2526,1545 2526,1551 2525,1556 2524,1562 2511,1553 2493,1547 2477,1547 2451,1547 2439,1558 2439,1572 2439,1587 2446,1595 2471,1604 L 2493,1613 C 2523,1624 2534,1640 2534,1664 2534,1695 2503,1724 2458,1724 2422,1724 2405,1713 2405,1691 2405,1685 2406,1678 2409,1674 L 2409,1674 Z"/>
        <path fill="rgb(0,0,0)" stroke="none" d="M 2579,1606 L 2581,1552 2558,1552 2558,1538 2602,1494 2616,1493 2614,1530 2668,1530 2665,1552 2613,1552 2612,1604 C 2612,1621 2612,1637 2612,1652 2612,1685 2622,1696 2637,1696 2649,1696 2659,1692 2667,1686 L 2672,1687 C 2670,1711 2656,1724 2627,1724 2595,1724 2579,1707 2579,1667 2578,1647 2579,1625 2579,1606 L 2579,1606 Z"/>
        <path fill="rgb(0,0,0)" stroke="none" d="M 2774,1520 C 2818,1520 2845,1550 2845,1597 2845,1605 2845,1613 2844,1623 L 2723,1623 C 2723,1669 2750,1696 2784,1696 2804,1696 2826,1689 2842,1678 2842,1680 2843,1684 2843,1688 2843,1707 2816,1724 2773,1724 2726,1724 2688,1688 2688,1630 2688,1559 2731,1520 2774,1520 L 2774,1520 Z M 2812,1602 C 2812,1562 2795,1542 2770,1542 2748,1542 2724,1569 2724,1602 L 2812,1602 2812,1602 Z"/>
        <path fill="rgb(0,0,0)" stroke="none" d="M 2897,1689 L 2897,1551 2870,1539 2870,1530 C 2889,1525 2907,1523 2919,1523 L 2929,1523 2929,1552 2929,1552 2941,1539 C 2952,1527 2963,1521 2977,1521 2991,1521 2998,1527 2998,1539 2998,1546 2996,1556 2992,1563 2984,1557 2975,1554 2966,1554 2954,1554 2942,1560 2930,1571 L 2930,1701 2959,1707 2959,1715 C 2945,1720 2931,1722 2908,1722 2896,1722 2884,1721 2875,1718 L 2875,1711 C 2886,1707 2897,1699 2897,1689 Z"/>
        <path fill="rgb(0,0,0)" stroke="none" d="M 3045,1689 L 3045,1551 3019,1539 3019,1531 C 3038,1525 3056,1523 3068,1523 L 3081,1523 3079,1545 3079,1701 3102,1707 3102,1715 C 3088,1720 3075,1722 3054,1722 3045,1722 3033,1721 3024,1718 L 3024,1711 C 3035,1707 3045,1699 3045,1689 Z M 3041,1462 C 3041,1449 3050,1438 3064,1438 3075,1438 3086,1447 3086,1460 3086,1474 3076,1486 3063,1486 3050,1485 3041,1475 3041,1462 Z"/>
        <path fill="rgb(0,0,0)" stroke="none" d="M 3213,1520 C 3257,1520 3284,1550 3284,1597 3284,1605 3284,1613 3283,1623 L 3163,1623 C 3163,1669 3189,1696 3223,1696 3243,1696 3265,1689 3281,1678 3282,1680 3283,1684 3283,1688 3283,1707 3256,1724 3212,1724 3165,1724 3127,1688 3127,1630 3127,1559 3170,1520 3213,1520 L 3213,1520 Z M 3251,1602 C 3251,1562 3234,1542 3209,1542 3187,1542 3163,1569 3163,1602 L 3251,1602 3251,1602 Z"/>
        <path fill="rgb(0,0,0)" stroke="none" d="M 3386,1545 L 3369,1533 3369,1523 3448,1523 3448,1533 3424,1543 3469,1673 3469,1673 3515,1544 3491,1533 3491,1523 3555,1523 3555,1533 3543,1542 3470,1723 3456,1724 3386,1545 3386,1545 Z"/>
        <path fill="rgb(0,0,0)" stroke="none" d="M 3673,1612 L 3673,1601 C 3673,1557 3662,1547 3637,1547 3614,1547 3592,1557 3575,1574 3574,1570 3574,1566 3574,1561 3574,1535 3593,1520 3641,1520 3682,1520 3707,1541 3707,1575 3707,1584 3706,1605 3705,1616 L 3704,1683 C 3707,1690 3713,1698 3720,1704 3714,1711 3703,1719 3693,1725 3685,1720 3679,1713 3674,1705 3662,1716 3640,1724 3619,1724 3588,1724 3566,1705 3566,1679 3566,1643 3606,1612 3673,1612 L 3673,1612 Z M 3634,1700 C 3646,1700 3663,1695 3673,1689 L 3673,1631 C 3627,1631 3602,1651 3602,1673 3602,1689 3613,1700 3634,1700 L 3634,1700 Z"/>
        <path fill="rgb(0,0,0)" stroke="none" d="M 3753,1711 C 3764,1707 3775,1699 3775,1689 L 3775,1551 3748,1539 3748,1530 C 3767,1525 3785,1523 3797,1523 L 3807,1523 3807,1545 C 3821,1531 3844,1522 3868,1522 3902,1522 3925,1544 3925,1586 L 3925,1701 3947,1707 3947,1715 C 3935,1719 3921,1722 3903,1722 3895,1722 3885,1721 3877,1718 L 3877,1711 C 3887,1707 3892,1699 3892,1684 L 3892,1606 C 3892,1566 3875,1551 3851,1551 3834,1551 3817,1557 3808,1564 L 3808,1701 3831,1707 3831,1715 C 3817,1720 3804,1722 3784,1722 3774,1722 3762,1721 3753,1718 L 3753,1711 3753,1711 Z"/>
        <path fill="rgb(0,0,0)" stroke="none" d="M 4059,1477 L 4037,1470 4037,1461 C 4051,1457 4064,1455 4078,1455 4093,1455 4099,1455 4115,1458 L 4115,1466 C 4102,1470 4099,1479 4103,1491 L 4152,1660 4152,1660 4206,1477 4180,1470 4180,1461 C 4195,1457 4209,1455 4224,1455 4234,1455 4242,1456 4252,1459 L 4252,1466 C 4241,1470 4234,1478 4228,1494 L 4156,1720 4139,1722 4059,1477 4059,1477 Z"/>
        <path fill="rgb(0,0,0)" stroke="none" d="M 4349,1520 C 4399,1520 4438,1558 4438,1615 4438,1682 4391,1725 4342,1725 4293,1725 4252,1690 4252,1630 4252,1563 4298,1520 4349,1520 L 4349,1520 Z M 4345,1701 C 4372,1701 4401,1674 4401,1618 4401,1570 4375,1544 4346,1544 4317,1544 4290,1572 4290,1626 4290,1676 4316,1701 4345,1701 L 4345,1701 Z"/>
        <path fill="rgb(0,0,0)" stroke="none" d="M 4467,1711 C 4478,1707 4489,1699 4489,1689 L 4489,1451 4462,1440 4462,1431 C 4480,1426 4500,1424 4511,1424 L 4524,1424 4522,1447 4522,1701 4545,1707 4545,1715 C 4531,1720 4518,1722 4498,1722 4488,1722 4476,1721 4467,1718 L 4467,1711 4467,1711 Z"/>
        <path fill="rgb(0,0,0)" stroke="none" d="M 4576,1711 C 4587,1707 4598,1699 4598,1689 L 4598,1451 4571,1440 4571,1431 C 4590,1426 4609,1424 4621,1424 L 4635,1424 4632,1447 4632,1611 4655,1591 C 4677,1573 4697,1544 4697,1526 4705,1523 4711,1523 4719,1523 4725,1523 4730,1524 4735,1526 4734,1544 4717,1572 4679,1598 L 4665,1609 4728,1685 C 4740,1700 4750,1705 4759,1705 L 4759,1714 C 4750,1720 4740,1723 4728,1723 4717,1723 4707,1717 4699,1707 L 4632,1619 4632,1702 4654,1708 4654,1716 C 4639,1721 4627,1723 4607,1723 4598,1723 4586,1722 4577,1719 L 4577,1711 4576,1711 Z"/>
        <path fill="rgb(0,0,0)" stroke="none" d="M 4780,1674 C 4799,1691 4816,1700 4838,1700 4861,1700 4873,1689 4873,1674 4873,1660 4865,1651 4838,1639 L 4818,1631 C 4794,1620 4781,1603 4781,1580 4781,1548 4809,1520 4852,1520 4885,1520 4898,1529 4898,1545 4898,1551 4897,1556 4896,1562 4883,1553 4865,1547 4849,1547 4823,1547 4811,1558 4811,1572 4811,1587 4818,1595 4843,1604 L 4865,1613 C 4894,1624 4906,1640 4906,1664 4906,1695 4875,1724 4829,1724 4793,1724 4777,1713 4777,1691 4777,1685 4778,1678 4780,1674 L 4780,1674 Z"/>
        <path fill="rgb(0,0,0)" stroke="none" d="M 4969,1659 L 4969,1658 C 4950,1651 4932,1629 4932,1601 4932,1555 4969,1520 5013,1520 5030,1520 5051,1527 5057,1533 5065,1526 5080,1520 5093,1520 5100,1520 5107,1521 5111,1522 L 5108,1549 C 5095,1546 5080,1545 5064,1545 L 5064,1545 C 5078,1556 5088,1573 5088,1590 5088,1638 5049,1670 5004,1670 4995,1670 4986,1668 4979,1665 4973,1669 4966,1677 4966,1684 4966,1697 4976,1703 4992,1703 L 5049,1703 C 5084,1702 5103,1718 5103,1749 5103,1788 5060,1820 5003,1820 4951,1820 4925,1799 4925,1773 4925,1751 4941,1733 4963,1727 4948,1722 4939,1711 4939,1695 4940,1680 4953,1664 4969,1659 Z M 5009,1797 C 5048,1797 5074,1778 5074,1758 5074,1743 5063,1733 5043,1733 L 4977,1733 C 4965,1739 4956,1752 4956,1766 4956,1783 4974,1797 5009,1797 Z M 5052,1592 C 5052,1557 5032,1541 5011,1541 4987,1541 4967,1563 4967,1599 4967,1633 4987,1650 5007,1650 5032,1650 5052,1632 5052,1592 Z"/>
        <path fill="rgb(0,0,0)" stroke="none" d="M 5208,1520 C 5252,1520 5279,1550 5279,1597 5279,1605 5279,1613 5279,1623 L 5158,1623 C 5158,1669 5184,1696 5218,1696 5238,1696 5261,1689 5276,1678 5277,1680 5278,1684 5278,1688 5278,1707 5251,1724 5207,1724 5160,1724 5122,1688 5122,1630 5122,1559 5165,1520 5208,1520 L 5208,1520 Z M 5246,1602 C 5246,1562 5229,1542 5204,1542 5182,1542 5158,1569 5158,1602 L 5246,1602 5246,1602 Z"/>
        <path fill="rgb(0,0,0)" stroke="none" d="M 5403,1548 L 5355,1548 C 5339,1548 5329,1555 5325,1566 L 5321,1576 5309,1576 5314,1525 5445,1525 5448,1533 5348,1696 5399,1696 C 5420,1696 5428,1690 5433,1680 L 5440,1666 5451,1666 5445,1719 5305,1719 5302,1712 5403,1548 5403,1548 Z"/>
        <path fill="rgb(0,0,0)" stroke="none" d="M 5571,1520 C 5622,1520 5661,1558 5661,1615 5661,1682 5613,1725 5565,1725 5515,1725 5475,1690 5475,1630 5475,1563 5521,1520 5571,1520 L 5571,1520 Z M 5567,1701 C 5594,1701 5623,1674 5623,1618 5623,1570 5597,1544 5568,1544 5540,1544 5512,1572 5512,1626 5512,1676 5538,1701 5567,1701 L 5567,1701 Z"/>
        <path fill="rgb(0,0,0)" stroke="none" d="M 5690,1711 C 5701,1707 5712,1699 5712,1689 L 5712,1551 5685,1539 5685,1530 C 5704,1525 5722,1523 5734,1523 L 5744,1523 5744,1545 C 5758,1531 5781,1522 5805,1522 5839,1522 5862,1544 5862,1586 L 5862,1701 5884,1707 5884,1715 C 5872,1719 5858,1722 5840,1722 5832,1722 5822,1721 5814,1718 L 5814,1711 C 5824,1707 5829,1699 5829,1684 L 5829,1606 C 5829,1566 5812,1551 5788,1551 5771,1551 5754,1557 5745,1564 L 5745,1701 5768,1707 5768,1715 C 5754,1720 5741,1722 5721,1722 5711,1722 5699,1721 5690,1718 L 5690,1711 5690,1711 Z"/>
        <path fill="rgb(0,0,0)" stroke="none" d="M 6007,1521 C 6016,1521 6028,1522 6035,1524 L 6035,1451 6007,1440 6007,1431 C 6026,1426 6046,1424 6058,1424 L 6071,1424 6069,1447 6069,1682 C 6072,1690 6076,1699 6084,1706 6076,1713 6067,1719 6056,1725 6047,1718 6040,1709 6036,1700 6023,1714 6000,1724 5984,1724 5942,1724 5909,1689 5909,1635 5909,1561 5953,1521 6007,1521 L 6007,1521 Z M 6035,1684 L 6035,1548 C 6029,1546 6017,1544 6006,1544 5971,1544 5944,1571 5944,1628 5944,1673 5968,1697 5994,1697 6009,1697 6026,1692 6035,1684 L 6035,1684 Z"/>
        <path fill="rgb(0,0,0)" stroke="none" d="M 6118,1711 C 6129,1707 6140,1699 6140,1689 L 6140,1451 6113,1440 6113,1431 C 6132,1426 6148,1424 6162,1424 L 6176,1424 6173,1447 6173,1545 C 6188,1531 6207,1523 6233,1523 6268,1523 6290,1544 6290,1587 L 6290,1701 6312,1707 6312,1715 C 6300,1720 6286,1722 6268,1722 6260,1722 6250,1721 6242,1718 L 6242,1711 C 6252,1707 6257,1699 6257,1684 L 6257,1606 C 6257,1566 6241,1551 6215,1551 6199,1551 6183,1557 6174,1564 L 6174,1701 6197,1707 6197,1715 C 6183,1720 6170,1722 6149,1722 6140,1722 6128,1721 6118,1718 L 6118,1711 6118,1711 Z"/>
        <path fill="rgb(0,0,0)" stroke="none" d="M 6422,1520 C 6467,1520 6493,1550 6493,1597 6493,1605 6493,1613 6493,1623 L 6372,1623 C 6372,1669 6399,1696 6432,1696 6453,1696 6475,1689 6490,1678 6491,1680 6492,1684 6492,1688 6492,1707 6465,1724 6421,1724 6375,1724 6336,1688 6336,1630 6337,1559 6380,1520 6422,1520 L 6422,1520 Z M 6461,1602 C 6461,1562 6443,1542 6419,1542 6397,1542 6373,1569 6373,1602 L 6461,1602 6461,1602 Z"/>
        <path fill="rgb(0,0,0)" stroke="none" d="M 6523,1711 C 6535,1707 6545,1699 6545,1689 L 6545,1551 6519,1539 6519,1531 C 6538,1525 6556,1523 6568,1523 L 6581,1523 6579,1545 6579,1701 6602,1707 6602,1715 C 6588,1720 6575,1722 6554,1722 6545,1722 6533,1721 6524,1718 L 6524,1711 6523,1711 Z M 6541,1462 C 6541,1449 6550,1438 6564,1438 6575,1438 6585,1447 6585,1460 6585,1474 6576,1486 6562,1486 6550,1485 6541,1475 6541,1462 L 6541,1462 Z"/>
        <path fill="rgb(0,0,0)" stroke="none" d="M 6725,1521 C 6735,1521 6746,1522 6753,1524 L 6753,1451 6725,1440 6725,1431 C 6744,1426 6764,1424 6776,1424 L 6789,1424 6787,1447 6787,1682 C 6790,1690 6795,1699 6803,1706 6794,1713 6785,1719 6774,1725 6766,1718 6758,1709 6754,1700 6741,1714 6719,1724 6702,1724 6661,1724 6627,1689 6627,1635 6627,1561 6672,1521 6725,1521 L 6725,1521 Z M 6754,1684 L 6754,1548 C 6747,1546 6735,1544 6724,1544 6689,1544 6663,1571 6663,1628 6663,1673 6686,1697 6712,1697 6727,1697 6744,1692 6754,1684 L 6754,1684 Z"/>
        <path fill="rgb(0,0,0)" stroke="none" d="M 6871,1674 C 6884,1674 6893,1683 6893,1697 6893,1735 6862,1767 6845,1772 L 6834,1769 C 6850,1752 6859,1733 6859,1710 L 6845,1692 C 6851,1681 6862,1674 6871,1674 L 6871,1674 Z"/>
        <path fill="rgb(0,0,0)" stroke="none" d="M 1638,1943 L 1615,1936 1615,1927 C 1629,1922 1644,1920 1657,1920 1670,1920 1681,1921 1694,1924 L 1694,1931 C 1681,1934 1677,1942 1681,1955 L 1726,2120 1726,2120 1769,1943 1747,1936 1747,1927 C 1763,1923 1777,1921 1792,1921 1804,1921 1817,1922 1826,1925 L 1826,1933 C 1817,1935 1815,1942 1818,1954 L 1858,2120 1858,2120 1903,1943 1878,1936 1878,1927 C 1893,1922 1907,1920 1921,1920 1932,1920 1940,1922 1948,1925 L 1948,1932 C 1937,1939 1932,1946 1927,1961 L 1860,2186 1844,2188 1787,1971 1787,1971 1730,2186 1714,2188 1638,1943 1638,1943 Z"/>
        <path fill="rgb(0,0,0)" stroke="none" d="M 2037,1986 C 2081,1986 2108,2015 2108,2062 2108,2070 2108,2078 2107,2089 L 1986,2089 C 1986,2135 2013,2161 2047,2161 2067,2161 2089,2154 2105,2143 2105,2145 2106,2150 2106,2154 2106,2172 2079,2190 2036,2190 1989,2190 1951,2153 1951,2096 1951,2025 1994,1986 2037,1986 L 2037,1986 Z M 2075,2067 C 2075,2027 2058,2008 2033,2008 2011,2008 1987,2035 1987,2067 L 2075,2067 2075,2067 Z"/>
        <path fill="rgb(0,0,0)" stroke="none" d="M 2137,2177 C 2147,2173 2159,2165 2159,2155 L 2159,1917 2132,1906 2132,1897 C 2150,1892 2170,1889 2181,1889 L 2194,1889 2192,1912 2192,2167 2215,2173 2215,2180 C 2201,2185 2188,2187 2168,2187 2158,2187 2146,2186 2137,2184 L 2137,2177 2137,2177 Z"/>
        <path fill="rgb(0,0,0)" stroke="none" d="M 2341,2014 L 2293,2014 C 2278,2014 2268,2021 2264,2031 L 2260,2042 2248,2042 2252,1990 2384,1991 2387,1998 2287,2161 2338,2161 C 2359,2161 2367,2156 2372,2145 L 2378,2132 2390,2132 2384,2184 2244,2184 2241,2178 2341,2014 2341,2014 Z"/>
        <path fill="rgb(0,0,0)" stroke="none" d="M 2440,2155 L 2440,2016 2413,2005 2413,1996 C 2432,1991 2451,1989 2462,1989 L 2475,1989 2473,2011 2473,2167 2496,2173 2496,2180 C 2482,2185 2469,2187 2449,2187 2439,2187 2427,2186 2418,2184 L 2418,2177 C 2429,2173 2440,2165 2440,2155 Z M 2435,1928 C 2435,1915 2444,1903 2458,1903 2470,1903 2480,1912 2480,1925 2480,1940 2470,1951 2457,1951 2445,1951 2435,1941 2435,1928 Z"/>
        <path fill="rgb(0,0,0)" stroke="none" d="M 2542,2016 L 2516,2005 2516,1996 C 2534,1991 2553,1989 2565,1989 L 2578,1989 2576,2012 2576,2196 C 2576,2263 2556,2284 2529,2284 2520,2284 2511,2281 2506,2274 L 2506,2267 C 2524,2267 2542,2247 2542,2205 L 2542,2016 2542,2016 Z M 2537,1928 C 2537,1915 2546,1903 2561,1903 2572,1903 2582,1912 2582,1925 2582,1940 2572,1951 2559,1951 2547,1951 2537,1941 2537,1928 L 2537,1928 Z"/>
        <path fill="rgb(0,0,0)" stroke="none" d="M 2621,2177 C 2631,2173 2642,2165 2642,2155 L 2642,2016 2616,2005 2616,1996 C 2634,1991 2653,1989 2665,1989 L 2675,1989 2675,2011 C 2689,1997 2711,1988 2735,1988 2769,1988 2793,2010 2793,2052 L 2793,2167 2814,2173 2814,2180 C 2803,2185 2789,2187 2771,2187 2762,2187 2752,2186 2744,2184 L 2744,2177 C 2755,2172 2759,2165 2759,2150 L 2759,2072 C 2759,2031 2742,2016 2718,2016 2701,2016 2685,2022 2676,2029 L 2676,2167 2699,2173 2699,2181 C 2685,2186 2672,2188 2651,2188 2641,2188 2630,2187 2620,2184 L 2620,2177 2621,2177 Z"/>
        <path fill="rgb(0,0,0)" stroke="none" d="M 3009,1986 C 3053,1986 3080,2015 3080,2062 3080,2070 3080,2078 3079,2089 L 2959,2089 C 2959,2135 2985,2161 3019,2161 3039,2161 3061,2154 3077,2143 3078,2145 3079,2150 3079,2154 3079,2172 3052,2190 3008,2190 2961,2190 2923,2153 2923,2096 2923,2025 2966,1986 3009,1986 L 3009,1986 Z M 3047,2067 C 3047,2027 3030,2008 3005,2008 2983,2008 2959,2035 2959,2067 L 3047,2067 3047,2067 Z"/>
        <path fill="rgb(0,0,0)" stroke="none" d="M 3110,2177 C 3121,2173 3132,2165 3132,2155 L 3132,2016 3105,2005 3105,1996 C 3124,1991 3142,1989 3154,1989 L 3164,1989 3164,2011 C 3178,1997 3201,1988 3225,1988 3259,1988 3282,2010 3282,2052 L 3282,2167 3304,2173 3304,2180 C 3292,2185 3278,2187 3260,2187 3252,2187 3242,2186 3234,2184 L 3234,2177 C 3244,2172 3248,2165 3248,2150 L 3248,2072 C 3248,2031 3232,2016 3207,2016 3191,2016 3174,2022 3165,2029 L 3165,2167 3188,2173 3188,2181 C 3174,2186 3161,2188 3141,2188 3131,2188 3119,2187 3110,2184 L 3110,2177 3110,2177 Z"/>
        <path fill="rgb(0,0,0)" stroke="none" d="M 3423,2121 L 3426,2131 C 3432,2154 3445,2164 3477,2164 3507,2164 3530,2146 3530,2121 3530,2105 3520,2090 3495,2075 L 3456,2052 C 3430,2037 3418,2017 3418,1990 3418,1949 3456,1918 3504,1918 3529,1918 3545,1921 3561,1928 L 3558,1985 3546,1985 3544,1977 C 3539,1952 3527,1944 3500,1944 3470,1944 3452,1962 3452,1983 3452,1999 3460,2012 3482,2024 L 3523,2046 C 3551,2061 3566,2083 3566,2110 3566,2153 3524,2189 3475,2189 3449,2189 3429,2187 3412,2181 L 3412,2121 3423,2121 Z"/>
        <path fill="rgb(0,0,0)" stroke="none" d="M 3677,2270 L 3677,2278 C 3663,2282 3647,2284 3626,2284 3616,2284 3604,2284 3595,2281 L 3595,2274 C 3606,2270 3617,2262 3617,2252 L 3617,2016 3590,2005 3590,1996 C 3609,1991 3627,1989 3639,1989 L 3649,1989 3649,2007 C 3662,1995 3683,1987 3702,1987 3743,1987 3777,2017 3777,2073 3777,2149 3729,2188 3677,2188 3668,2188 3657,2186 3650,2183 L 3650,2264 3677,2270 Z M 3676,2165 C 3713,2165 3741,2140 3741,2082 3741,2037 3715,2014 3688,2014 3673,2014 3660,2017 3650,2024 L 3650,2163 C 3657,2165 3666,2165 3676,2165 Z"/>
        <path fill="rgb(0,0,0)" stroke="none" d="M 3906,1985 C 3956,1985 3995,2023 3995,2080 3995,2148 3948,2190 3899,2190 3850,2190 3809,2156 3809,2096 3810,2028 3855,1985 3906,1985 L 3906,1985 Z M 3902,2167 C 3929,2167 3958,2140 3958,2084 3958,2036 3932,2009 3903,2009 3875,2009 3847,2038 3847,2092 3847,2141 3873,2167 3902,2167 L 3902,2167 Z"/>
        <path fill="rgb(0,0,0)" stroke="none" d="M 4025,2177 C 4036,2173 4047,2165 4047,2155 L 4047,2016 4020,2005 4020,1996 C 4039,1991 4057,1989 4069,1989 L 4079,1989 4079,2017 4080,2017 4091,2005 C 4102,1993 4113,1987 4127,1987 4141,1987 4148,1993 4148,2004 4148,2012 4146,2021 4142,2029 4134,2023 4125,2020 4116,2020 4104,2020 4092,2025 4080,2037 L 4080,2167 4109,2173 4109,2181 C 4095,2186 4081,2188 4058,2188 4046,2188 4035,2187 4025,2184 L 4025,2177 4025,2177 Z"/>
        <path fill="rgb(0,0,0)" stroke="none" d="M 4191,2072 L 4192,2017 4170,2017 4170,2004 4214,1960 4228,1958 4226,1995 4280,1995 4277,2017 4225,2017 4224,2069 C 4224,2086 4224,2102 4224,2117 4224,2150 4233,2162 4249,2162 4261,2162 4271,2157 4279,2151 L 4283,2153 C 4282,2177 4267,2189 4239,2189 4206,2189 4191,2172 4191,2132 4190,2112 4191,2091 4191,2072 L 4191,2072 Z"/>
       </g>
      </g>
     </g>
    </g>
   </g>
  </g>
 </g>
</svg>