<?xml version="1.0" encoding="UTF-8"?>
<!DOCTYPE svg PUBLIC "-//W3C//DTD SVG 1.1//EN" "http://www.w3.org/Graphics/SVG/1.1/DTD/svg11.dtd">
<svg version="1.2" width="156.5mm" height="53mm" viewBox="0 0 15650 5300" preserveAspectRatio="xMidYMid" fill-rule="evenodd" stroke-width="28.222" stroke-linejoin="round" xmlns="http://www.w3.org/2000/svg" xmlns:ooo="http://xml.openoffice.org/svg/export" xmlns:xlink="http://www.w3.org/1999/xlink" xmlns:presentation="http://sun.com/xmlns/staroffice/presentation" xmlns:smil="http://www.w3.org/2001/SMIL20/" xmlns:anim="urn:oasis:names:tc:opendocument:xmlns:animation:1.0" xmlns:svg="urn:oasis:names:tc:opendocument:xmlns:svg-compatible:1.0" xml:space="preserve">
 <defs class="ClipPathGroup">
  <clipPath id="presentation_clip_path" clipPathUnits="userSpaceOnUse">
   <rect x="0" y="0" width="15650" height="5300"/>
  </clipPath>
  <clipPath id="presentation_clip_path_shrink" clipPathUnits="userSpaceOnUse">
   <rect x="15" y="5" width="15619" height="5290"/>
  </clipPath>
 </defs>
 <defs class="TextShapeIndex">
  <g ooo:slide="id1" ooo:id-list="id3 id4 id5 id6 id7 id8 id9 id10 id11 id12 id13 id14 id15 id16 id17 id18 id19 id20 id21 id22 id23 id24 id25 id26 id27 id28 id29 id30 id31 id32 id33 id34 id35 id36 id37 id38 id39 id40 id41 id42 id43 id44 id45 id46 id47"/>
 </defs>
 <defs class="EmbeddedBulletChars">
  <g id="bullet-char-template-57356" transform="scale(0.00048828125,-0.00048828125)">
   <path d="M 580,1141 L 1163,571 580,0 -4,571 580,1141 Z"/>
  </g>
  <g id="bullet-char-template-57354" transform="scale(0.00048828125,-0.00048828125)">
   <path d="M 8,1128 L 1137,1128 1137,0 8,0 8,1128 Z"/>
  </g>
  <g id="bullet-char-template-10146" transform="scale(0.00048828125,-0.00048828125)">
   <path d="M 174,0 L 602,739 174,1481 1456,739 174,0 Z M 1358,739 L 309,1346 659,739 1358,739 Z"/>
  </g>
  <g id="bullet-char-template-10132" transform="scale(0.00048828125,-0.00048828125)">
   <path d="M 2015,739 L 1276,0 717,0 1260,543 174,543 174,936 1260,936 717,1481 1274,1481 2015,739 Z"/>
  </g>
  <g id="bullet-char-template-10007" transform="scale(0.00048828125,-0.00048828125)">
   <path d="M 0,-2 C -7,14 -16,27 -25,37 L 356,567 C 262,823 215,952 215,954 215,979 228,992 255,992 264,992 276,990 289,987 310,991 331,999 354,1012 L 381,999 492,748 772,1049 836,1024 860,1049 C 881,1039 901,1025 922,1006 886,937 835,863 770,784 769,783 710,716 594,584 L 774,223 C 774,196 753,168 711,139 L 727,119 C 717,90 699,76 672,76 641,76 570,178 457,381 L 164,-76 C 142,-110 111,-127 72,-127 30,-127 9,-110 8,-76 1,-67 -2,-52 -2,-32 -2,-23 -1,-13 0,-2 Z"/>
  </g>
  <g id="bullet-char-template-10004" transform="scale(0.00048828125,-0.00048828125)">
   <path d="M 285,-33 C 182,-33 111,30 74,156 52,228 41,333 41,471 41,549 55,616 82,672 116,743 169,778 240,778 293,778 328,747 346,684 L 369,508 C 377,444 397,411 428,410 L 1163,1116 C 1174,1127 1196,1133 1229,1133 1271,1133 1292,1118 1292,1087 L 1292,965 C 1292,929 1282,901 1262,881 L 442,47 C 390,-6 338,-33 285,-33 Z"/>
  </g>
  <g id="bullet-char-template-9679" transform="scale(0.00048828125,-0.00048828125)">
   <path d="M 813,0 C 632,0 489,54 383,161 276,268 223,411 223,592 223,773 276,916 383,1023 489,1130 632,1184 813,1184 992,1184 1136,1130 1245,1023 1353,916 1407,772 1407,592 1407,412 1353,268 1245,161 1136,54 992,0 813,0 Z"/>
  </g>
  <g id="bullet-char-template-8226" transform="scale(0.00048828125,-0.00048828125)">
   <path d="M 346,457 C 273,457 209,483 155,535 101,586 74,649 74,723 74,796 101,859 155,911 209,963 273,989 346,989 419,989 480,963 531,910 582,859 608,796 608,723 608,648 583,586 532,535 482,483 420,457 346,457 Z"/>
  </g>
  <g id="bullet-char-template-8211" transform="scale(0.00048828125,-0.00048828125)">
   <path d="M -4,459 L 1135,459 1135,606 -4,606 -4,459 Z"/>
  </g>
  <g id="bullet-char-template-61548" transform="scale(0.00048828125,-0.00048828125)">
   <path d="M 173,740 C 173,903 231,1043 346,1159 462,1274 601,1332 765,1332 928,1332 1067,1274 1183,1159 1299,1043 1357,903 1357,740 1357,577 1299,437 1183,322 1067,206 928,148 765,148 601,148 462,206 346,322 231,437 173,577 173,740 Z"/>
  </g>
 </defs>
 <g>
  <g id="id2" class="Master_Slide">
   <g id="bg-id2" class="Background"/>
   <g id="bo-id2" class="BackgroundObjects"/>
  </g>
 </g>
 <g class="SlideGroup">
  <g>
   <g id="container-id1">
    <g id="id1" class="Slide" clip-path="url(#presentation_clip_path)">
     <g class="Page">
      <g class="Group">
       <g class="Group">
        <g class="com.sun.star.drawing.PolyPolygonShape">
         <g id="id3">
          <rect class="BoundingBox" stroke="none" fill="none" x="0" y="7" width="2646" height="5292"/>
          <path fill="rgb(21,66,115)" stroke="none" d="M 0,7 L 2644,7 2644,5297 0,5297 0,7 Z"/>
         </g>
        </g>
        <g class="com.sun.star.drawing.ClosedBezierShape">
         <g id="id4">
          <rect class="BoundingBox" stroke="none" fill="none" x="168" y="2641" width="2309" height="1904"/>
          <path fill="rgb(255,255,255)" stroke="none" d="M 1369,4101 L 1323,4101 1323,3974 1369,3974 1369,4101 Z M 1575,3535 L 1533,3535 1533,3408 1581,3408 1581,3535 1575,3535 Z M 725,3318 C 719,3318 698,3318 698,3323 698,3329 709,3323 725,3329 762,3334 778,3355 804,3355 825,3355 852,3339 841,3308 841,3302 836,3302 836,3308 831,3323 815,3334 794,3334 767,3323 762,3318 725,3318 Z M 471,3445 C 476,3450 518,3509 450,3530 444,3530 444,3535 450,3535 497,3556 499,3525 524,3519 550,3577 513,3579 508,3609 513,3620 540,3636 571,3646 587,3641 603,3625 614,3604 614,3620 624,3630 614,3651 714,3662 751,3583 825,3593 827,3592 831,3593 831,3588 831,3540 799,3445 704,3429 608,3413 658,3391 635,3371 677,3371 677,3382 698,3387 704,3376 694,3369 693,3360 698,3355 696,3346 698,3339 651,3339 659,3333 640,3329 635,3302 651,3265 719,3302 735,3286 729,3278 735,3265 741,3265 746,3255 746,3249 746,3239 693,3207 677,3207 672,3191 651,3165 587,3175 555,3181 534,3170 545,3154 545,3149 540,3149 540,3154 534,3159 524,3181 550,3196 582,3212 582,3239 582,3244 582,3249 577,3249 571,3244 561,3196 492,3186 450,3212 450,3239 481,3255 497,3255 508,3255 518,3244 518,3234 518,3228 524,3228 524,3234 529,3249 503,3286 466,3265 428,3302 444,3355 444,3371 450,3403 434,3435 407,3419 L 402,3419 C 413,3440 439,3461 471,3445 Z M 688,3244 C 667,3265 640,3260 630,3228 672,3228 688,3228 688,3244 Z M 1856,3323 C 1835,3323 1819,3313 1813,3297 1813,3292 1808,3292 1808,3297 1798,3329 1824,3345 1845,3345 1872,3345 1888,3329 1925,3318 1940,3318 1951,3318 1951,3313 1951,3308 1934,3310 1925,3308 1882,3318 1877,3323 1856,3323 Z M 2231,3419 C 2200,3429 2184,3403 2189,3366 2194,3350 2210,3302 2168,3260 2131,3281 2104,3244 2110,3228 2110,3223 2115,3223 2115,3228 2115,3239 2126,3249 2136,3249 2152,3249 2178,3234 2184,3207 2141,3181 2078,3191 2062,3239 2062,3244 2052,3244 2052,3239 2052,3234 2052,3207 2083,3191 2110,3181 2099,3159 2094,3149 L 2089,3149 C 2099,3165 2078,3175 2046,3170 1983,3159 1962,3186 1956,3202 1940,3207 1888,3234 1888,3244 1888,3249 1893,3255 1898,3260 1904,3273 1898,3281 1914,3297 1983,3255 1999,3297 1993,3323 1974,3327 1983,3334 1935,3334 1937,3341 1935,3350 1940,3355 1939,3364 1930,3366 1935,3382 1957,3377 1956,3366 1999,3366 1976,3386 2025,3403 1930,3424 1835,3445 1803,3535 1803,3583 1803,3588 1803,3588 1808,3588 1888,3572 1919,3651 2020,3646 2009,3625 2020,3615 2020,3599 2030,3620 2046,3636 2062,3641 2099,3630 2120,3614 2126,3604 2123,3574 2089,3572 2115,3514 2140,3520 2141,3551 2189,3530 2194,3530 2194,3525 2189,3525 2120,3503 2168,3445 2168,3440 2205,3461 2231,3440 2231,3419 Z M 2014,3228 C 2009,3260 1977,3265 1962,3244 1962,3228 1977,3228 2014,3228 Z M 1307,2662 C 1307,2673 1312,2678 1312,2683 1317,2694 1317,2694 1312,2699 1307,2704 1307,2704 1296,2699 1291,2694 1285,2694 1275,2694 1259,2694 1254,2705 1254,2710 1254,2716 1259,2726 1275,2726 1285,2726 1291,2720 1296,2720 1307,2715 1307,2715 1312,2720 1317,2726 1312,2752 1307,2773 1280,2778 1270,2800 1270,2810 1270,2837 1301,2858 1317,2863 1332,2853 1364,2837 1364,2810 1364,2800 1353,2778 1327,2773 1323,2752 1324,2738 1323,2720 1327,2720 1327,2715 1337,2720 1343,2726 1348,2726 1359,2726 1374,2726 1380,2716 1380,2710 1380,2705 1374,2694 1359,2694 1348,2694 1343,2699 1337,2699 1327,2704 1328,2704 1323,2699 1317,2694 1317,2694 1323,2683 1327,2678 1327,2673 1327,2662 1327,2647 1317,2642 1312,2642 1317,2642 1307,2647 1307,2662 Z M 1323,2879 C 1301,2879 1285,2895 1285,2916 1285,2937 1301,2953 1323,2953 1344,2953 1359,2937 1359,2916 1359,2895 1344,2879 1323,2879 Z M 1323,3218 C 1464,3218 1470,3236 1544,3244 1544,3175 1544,3133 1586,3138 1565,3080 1660,3054 1660,2980 1660,2927 1623,2921 1612,2921 1581,2921 1586,2943 1560,2943 L 1554,2943 C 1554,2953 1560,2969 1575,2969 1591,2969 1591,2953 1607,2953 1612,2953 1618,2958 1618,2974 1618,3006 1597,3043 1570,3075 1565,3064 1554,3064 1544,3064 1528,3064 1517,3080 1517,3101 1517,3107 1517,3112 1523,3117 1512,3122 1507,3122 1501,3122 1491,3122 1475,3117 1475,3091 1475,3032 1549,2985 1549,2911 1549,2874 1528,2842 1480,2842 1427,2842 1438,2890 1396,2890 L 1390,2890 C 1390,2895 1396,2916 1422,2916 1448,2916 1454,2874 1475,2874 1480,2874 1496,2879 1496,2905 1496,2927 1485,2964 1470,3001 1464,2995 1454,2990 1448,2990 1427,2990 1417,3006 1417,3032 1417,3048 1422,3059 1433,3069 1422,3085 1411,3096 1396,3096 1364,3096 1353,3080 1353,3059 1353,3038 1390,3032 1390,3001 1390,2980 1374,2969 1364,2969 1348,2969 1343,2980 1337,2980 1332,2980 1327,2969 1312,2969 1296,2969 1285,2980 1285,3001 1285,3032 1323,3043 1323,3059 1323,3080 1307,3096 1280,3096 1264,3096 1254,3085 1243,3069 1254,3059 1259,3048 1259,3032 1259,3011 1243,2990 1227,2990 1217,2990 1211,2995 1206,3001 1190,2964 1180,2932 1180,2905 1180,2879 1190,2874 1201,2874 1222,2874 1227,2916 1254,2916 1275,2916 1274,2899 1285,2890 L 1280,2890 C 1238,2890 1243,2842 1196,2842 1148,2842 1127,2874 1127,2911 1127,2985 1201,3032 1201,3091 1201,3117 1185,3122 1174,3122 1169,3122 1164,3122 1153,3117 1153,3112 1159,3107 1159,3101 1159,3080 1148,3064 1132,3064 1121,3064 1116,3069 1111,3075 1084,3048 1063,3011 1063,2974 1063,2958 1069,2953 1074,2953 1084,2953 1084,2969 1106,2969 1116,2969 1127,2953 1127,2943 L 1121,2943 C 1095,2943 1100,2921 1069,2921 1058,2921 1021,2927 1021,2980 1021,3059 1116,3080 1095,3138 1136,3133 1137,3168 1137,3238 1158,3231 1226,3218 1323,3218 Z M 1137,3244 C 1128,3244 1128,3242 1137,3238 L 1137,3244 Z M 984,3345 C 984,3329 989,3313 1005,3308 L 1005,3302 C 973,3281 969,3316 952,3323 942,3323 920,3323 920,3345 920,3392 809,3419 783,3424 831,3440 825,3474 846,3498 878,3466 920,3435 926,3435 931,3435 936,3445 936,3450 938,3450 936,3456 942,3450 957,3424 952,3419 947,3408 947,3403 947,3382 973,3382 L 973,3710 963,3715 C 957,3715 910,3673 857,3636 804,3599 772,3620 709,3651 624,3694 599,3655 545,3657 476,3704 481,3788 450,3853 434,3858 413,3863 391,3863 339,3863 328,3831 328,3810 328,3726 434,3694 434,3609 434,3588 423,3509 323,3509 L 233,3509 C 196,3509 185,3482 180,3472 180,3466 177,3472 175,3472 175,3477 169,3487 169,3509 169,3540 190,3562 227,3562 243,3562 259,3556 265,3551 270,3551 270,3551 270,3556 254,3572 254,3609 259,3620 L 265,3620 C 275,3583 307,3551 349,3551 402,3551 402,3599 402,3609 402,3678 286,3726 286,3816 286,3911 386,3927 439,3916 434,4011 328,4043 328,3974 328,3969 323,3969 323,3974 312,4006 312,4038 354,4043 360,4043 354,4043 354,4048 312,4075 333,4175 339,4207 344,4249 310,4232 296,4244 296,4246 291,4244 296,4249 333,4297 345,4260 370,4265 397,4276 381,4297 360,4313 354,4313 354,4318 360,4318 365,4318 407,4323 418,4286 439,4308 466,4302 471,4297 481,4292 518,4276 524,4323 524,4329 524,4323 529,4323 561,4281 529,4260 508,4255 523,4257 534,4234 555,4260 557,4260 561,4265 561,4260 566,4212 524,4207 497,4228 497,4223 487,4196 529,4196 529,4195 534,4196 529,4191 497,4159 471,4186 466,4196 450,4212 418,4207 413,4207 423,4032 577,4096 598,4011 598,4006 603,4006 603,4011 608,4032 661,4032 672,3995 L 672,3990 C 630,4032 529,3895 667,3784 783,3689 889,3741 926,3773 926,3789 920,3789 915,3794 L 915,3800 C 926,3805 942,3805 947,3794 973,3810 952,3837 942,3842 L 942,3847 C 963,3853 984,3826 984,3816 L 989,3816 989,3916 C 989,4059 1153,4075 1327,4196 1507,4075 1665,4059 1665,3916 L 1665,3816 1671,3816 C 1671,3826 1692,3853 1713,3847 1713,3846 1718,3847 1713,3842 1702,3837 1681,3816 1708,3794 1713,3805 1729,3805 1739,3800 1745,3800 1739,3796 1739,3794 1734,3794 1724,3789 1729,3773 1771,3741 1872,3689 1988,3784 2126,3895 2025,4032 1977,3990 L 1977,3995 C 1988,4038 2041,4032 2046,4011 2048,4011 2046,4006 2052,4011 2073,4096 2226,4032 2237,4207 2231,4207 2200,4212 2184,4196 2178,4191 2152,4159 2120,4191 L 2120,4196 C 2163,4196 2152,4223 2152,4228 2126,4207 2083,4212 2089,4260 2089,4265 2089,4265 2094,4260 2115,4228 2141,4249 2141,4255 2126,4260 2089,4281 2120,4323 2122,4323 2126,4329 2126,4323 2131,4276 2173,4292 2178,4297 2184,4302 2216,4308 2231,4286 2242,4323 2285,4318 2290,4318 2296,4318 2295,4318 2290,4313 2268,4302 2253,4276 2279,4265 2302,4264 2316,4302 2348,4260 L 2348,4255 C 2342,4255 2300,4260 2305,4218 2305,4186 2332,4085 2290,4059 2290,4058 2284,4054 2290,4054 2332,4043 2337,4017 2321,3985 2321,3980 2316,3980 2316,3985 2311,4054 2205,4022 2205,3927 2263,3943 2358,3921 2358,3826 2358,3736 2242,3683 2242,3620 2242,3609 2242,3562 2295,3562 2337,3562 2374,3593 2379,3630 L 2385,3630 C 2390,3620 2390,3588 2374,3567 2376,3566 2374,3562 2379,3562 2385,3567 2401,3572 2417,3572 2454,3572 2475,3551 2475,3519 2475,3498 2469,3487 2469,3482 2469,3477 2469,3477 2464,3482 2459,3493 2448,3519 2411,3519 L 2321,3519 C 2221,3519 2210,3599 2210,3620 2210,3704 2316,3736 2316,3821 2316,3842 2305,3874 2253,3874 2231,3874 2205,3868 2194,3863 2163,3798 2168,3715 2099,3667 2045,3666 2014,3710 1935,3662 1872,3630 1845,3604 1787,3646 1734,3683 1687,3726 1681,3726 L 1671,3720 1671,3392 C 1697,3392 1697,3414 1697,3419 1697,3425 1687,3435 1702,3461 L 1708,3461 C 1708,3456 1713,3445 1718,3445 1724,3445 1766,3477 1798,3509 1819,3485 1819,3450 1861,3435 1835,3429 1724,3403 1724,3355 1724,3339 1708,3334 1692,3334 1675,3327 1671,3292 1639,3313 L 1639,3318 C 1655,3323 1660,3339 1660,3355 1628,3345 1491,3308 1322,3308 1243,3308 1169,3318 1111,3329 L 1111,3440 1063,3440 1063,3323 C 1026,3334 1000,3339 984,3345 Z M 762,4487 C 751,4482 741,4477 741,4456 L 741,4387 C 719,4382 667,4360 555,4360 466,4360 434,4382 434,4387 L 407,4519 C 463,4510 444,4487 577,4493 735,4503 899,4599 899,4498 L 899,4440 C 778,4440 762,4477 762,4487 Z M 1745,4440 L 1745,4498 C 1745,4599 1909,4503 2073,4493 2205,4482 2186,4510 2242,4519 L 2216,4387 C 2216,4382 2184,4360 2094,4360 1983,4360 1930,4382 1909,4387 L 1909,4456 C 1909,4472 1898,4477 1888,4487 1888,4477 1866,4440 1745,4440 Z M 1323,4376 C 1581,4376 1840,4387 1872,4429 1872,4435 1877,4429 1877,4424 L 1877,4292 C 1877,4249 1608,4228 1323,4228 1037,4228 767,4249 767,4292 L 767,4429 C 768,4431 767,4435 772,4435 804,4392 1069,4376 1323,4376 Z M 1095,3736 L 1069,3731 1069,3736 1037,3726 1063,3726 1063,3720 1042,3699 C 1052,3703 1053,3704 1074,3710 1063,3699 1060,3689 1053,3678 1061,3685 1075,3691 1079,3698 1073,3682 1068,3674 1063,3662 L 1090,3689 C 1090,3678 1086,3664 1084,3651 L 1106,3678 1106,3646 C 1109,3655 1116,3667 1116,3673 L 1121,3673 C 1121,3667 1128,3655 1132,3646 L 1132,3678 1127,3678 1121,3715 C 1159,3704 1205,3641 1248,3641 1290,3641 1307,3694 1390,3667 1411,3699 1417,3726 1427,3763 1459,3794 1501,3784 1501,3752 1501,3710 1454,3704 1454,3657 1454,3636 1470,3609 1507,3609 1528,3609 1554,3620 1570,3620 1591,3620 1597,3605 1597,3599 1597,3594 1602,3593 1602,3599 L 1602,3620 C 1602,3646 1560,3651 1554,3646 1560,3651 1560,3667 1554,3678 1549,3657 1528,3636 1507,3636 1501,3636 1485,3641 1485,3657 1485,3683 1538,3704 1538,3757 1538,3810 1485,3826 1433,3810 1433,3863 1512,3890 1512,3853 1523,3868 1517,3879 1501,3884 1512,3890 1517,3916 1523,3932 1528,3958 1544,3940 1554,3943 1544,3969 1530,3953 1517,3958 1507,3969 1517,3974 1533,3980 L 1533,3985 C 1523,3990 1507,3995 1496,3980 1491,3995 1475,3995 1470,3995 1459,3995 1454,4006 1454,4017 1433,4001 1443,3985 1454,3980 1445,3984 1438,3969 1427,3990 1417,3964 1438,3953 1454,3964 1454,3958 1443,3948 1422,3953 1427,3943 1438,3932 1454,3943 1464,3948 1472,3939 1480,3937 1448,3868 1380,3927 1364,3874 1359,3884 1332,3884 1327,3863 1332,3868 1337,3874 1353,3853 1359,3842 1364,3826 1364,3816 1364,3773 1323,3704 1259,3704 1217,3704 1174,3720 1143,3747 L 1174,3752 C 1174,3784 1143,3800 1116,3794 L 1121,3757 C 1116,3757 1106,3763 1100,3773 1095,3752 1111,3741 1116,3741 1100,3741 1095,3752 1090,3757 1090,3752 1090,3741 1095,3736 Z M 1079,3699 L 1079,3698 1079,3699 Z M 1185,3974 C 1174,3990 1164,3974 1148,3974 1132,3974 1132,3985 1132,3990 1116,3969 1132,3953 1143,3953 1134,3955 1127,3943 1116,3958 1116,3932 1137,3927 1153,3943 1153,3932 1148,3927 1137,3927 1143,3921 1148,3921 1153,3921 1169,3921 1169,3943 1180,3943 1196,3943 1204,3929 1217,3921 1213,3900 1201,3879 1206,3858 1201,3863 1180,3863 1180,3842 1185,3853 1201,3842 1206,3831 1211,3821 1254,3768 1301,3768 1312,3768 1327,3773 1337,3784 1323,3804 1336,3824 1347,3821 1280,3847 1254,3858 1254,3911 1254,3943 1264,3958 1280,3953 1275,3958 1270,3964 1259,3964 1243,3964 1243,3958 1233,3958 1227,3958 1201,3974 1201,3985 1201,3987 1202,3989 1203,3991 1196,3987 1188,3983 1185,3974 Z M 1359,3429 C 1337,3429 1327,3435 1327,3440 1337,3450 1348,3450 1359,3429 Z M 1285,3482 C 1301,3477 1306,3482 1317,3482 L 1317,3487 C 1285,3493 1285,3503 1264,3503 1254,3503 1238,3493 1243,3472 1243,3466 1243,3466 1248,3472 1248,3477 1259,3487 1285,3482 Z M 883,4159 C 905,4186 926,4159 952,4159 963,4159 979,4165 984,4191 1010,4149 979,4128 963,4128 968,4122 995,4107 1016,4133 L 1021,4133 C 1021,4085 984,4080 957,4101 952,4080 968,4069 984,4069 984,4068 989,4069 984,4064 952,4027 926,4075 920,4080 910,4096 857,4064 841,4043 855,4015 883,4001 883,3958 L 883,3953 C 889,3958 894,3958 899,3958 910,3958 926,3953 926,3921 920,3927 915,3932 910,3932 878,3932 804,3816 719,3816 698,3816 656,3831 635,3853 645,3858 645,3868 645,3879 645,3895 635,3900 619,3905 L 619,3911 C 661,3927 741,3958 756,3974 778,3990 772,4027 762,4075 751,4117 725,4112 714,4112 725,4128 741,4128 751,4128 772,4128 783,4112 794,4112 815,4112 852,4138 852,4159 852,4170 841,4181 831,4191 841,4191 878,4196 883,4159 Z M 1819,4191 C 1808,4181 1798,4170 1798,4159 1798,4138 1840,4112 1856,4112 1866,4112 1877,4128 1898,4128 1909,4128 1925,4122 1935,4112 1925,4112 1898,4117 1888,4075 1877,4027 1872,3995 1893,3974 1909,3958 1988,3932 2030,3911 L 2030,3905 C 2020,3900 2009,3895 2004,3879 2004,3868 2004,3858 2014,3853 1993,3831 1951,3816 1930,3816 1845,3816 1771,3932 1739,3932 1734,3932 1729,3932 1724,3921 1724,3958 1739,3958 1750,3958 1755,3958 1761,3958 1766,3953 L 1766,3958 C 1766,4001 1794,4015 1808,4043 1787,4064 1739,4096 1729,4080 1724,4075 1697,4027 1665,4064 L 1665,4069 C 1687,4069 1697,4080 1692,4101 1665,4080 1628,4080 1628,4133 1630,4133 1628,4138 1634,4133 1649,4107 1681,4122 1687,4128 1665,4133 1634,4154 1665,4191 1671,4165 1687,4159 1697,4159 1724,4159 1745,4186 1766,4159 1771,4196 1808,4191 1819,4191 Z M 1137,3530 C 1137,3535 1127,3530 1121,3530 1121,3535 1132,3551 1143,3551 1148,3551 1153,3548 1159,3546 1183,3553 1206,3562 1233,3567 1222,3577 1217,3593 1217,3609 1196,3599 1149,3574 1116,3556 L 1090,3588 C 1084,3593 1063,3577 1069,3572 L 1090,3546 C 1084,3540 1069,3540 1063,3546 1063,3540 1074,3525 1100,3530 1100,3514 1079,3519 1074,3519 1079,3514 1095,3498 1116,3509 L 1127,3498 1111,3482 1121,3466 1132,3482 1222,3355 C 1222,3350 1243,3345 1248,3345 L 1248,3371 1159,3498 1180,3503 1164,3530 1143,3519 1137,3530 Z M 1454,3509 C 1454,3520 1459,3535 1475,3530 1475,3540 1448,3556 1438,3540 1427,3562 1433,3577 1448,3588 L 1448,3593 C 1443,3604 1427,3604 1417,3583 1401,3593 1401,3620 1411,3630 1383,3634 1364,3657 1327,3641 1301,3630 1280,3609 1243,3614 1248,3567 1275,3551 1317,3546 1353,3540 1359,3525 1353,3509 1343,3503 1329,3516 1317,3519 1312,3514 1317,3509 1317,3503 1317,3498 1313,3497 1312,3493 1337,3493 1333,3489 1343,3487 1348,3461 1323,3456 1301,3472 1291,3461 1297,3458 1296,3450 1294,3447 1291,3445 1291,3440 1291,3435 1322,3419 1327,3413 1327,3403 1337,3392 1374,3398 1380,3387 1374,3355 1369,3350 1371,3350 1369,3345 1374,3350 1385,3355 1396,3382 1406,3382 1419,3377 1443,3360 1443,3366 L 1448,3408 C 1454,3413 1480,3408 1496,3413 1501,3413 1501,3419 1496,3419 1485,3419 1459,3435 1454,3440 1464,3461 1454,3499 1454,3509 Z"/>
         </g>
        </g>
       </g>
       <g class="Group">
        <g class="com.sun.star.drawing.ClosedBezierShape">
         <g id="id5">
          <rect class="BoundingBox" stroke="none" fill="none" x="3418" y="3013" width="724" height="646"/>
          <path fill="rgb(0,0,0)" stroke="none" d="M 3419,3647 L 3419,3629 C 3437,3624 3451,3617 3461,3607 3470,3597 3476,3585 3477,3571 L 3521,3066 3463,3049 3463,3021 C 3486,3018 3509,3016 3534,3015 3559,3014 3580,3014 3598,3014 L 3633,3014 3788,3493 3789,3493 3939,3014 3982,3014 C 4000,3014 4019,3014 4040,3015 4061,3016 4082,3018 4101,3021 L 4101,3049 4040,3064 4084,3607 4141,3618 4141,3640 C 4129,3645 4115,3649 4099,3652 4082,3655 4064,3657 4045,3657 4023,3657 4003,3656 3987,3655 3970,3654 3954,3651 3936,3647 L 3936,3628 C 3957,3624 3972,3615 3981,3603 3991,3590 3995,3574 3995,3553 L 3970,3105 3968,3105 3792,3653 3754,3658 3576,3106 3575,3107 3544,3602 3608,3618 3608,3640 C 3587,3647 3569,3651 3554,3653 3538,3656 3519,3657 3495,3657 3484,3657 3471,3656 3458,3654 3444,3652 3431,3650 3419,3647 Z"/>
         </g>
        </g>
        <g class="com.sun.star.drawing.ClosedBezierShape">
         <g id="id6">
          <rect class="BoundingBox" stroke="none" fill="none" x="4185" y="2971" width="202" height="686"/>
          <path fill="rgb(0,0,0)" stroke="none" d="M 4290,3086 C 4276,3086 4263,3081 4253,3070 4243,3059 4238,3046 4238,3030 4238,3014 4243,3001 4253,2989 4263,2977 4277,2971 4294,2971 4308,2971 4320,2976 4330,2986 4341,2995 4346,3008 4346,3025 4346,3042 4340,3056 4330,3068 4319,3080 4306,3086 4290,3086 Z M 4196,3647 L 4196,3630 C 4210,3626 4222,3619 4233,3609 4243,3599 4249,3589 4249,3577 L 4249,3243 4186,3216 4186,3195 C 4208,3189 4230,3184 4251,3181 4272,3178 4289,3177 4303,3177 L 4335,3177 4330,3230 4330,3606 4385,3620 4385,3639 C 4369,3645 4352,3649 4334,3652 4317,3655 4296,3656 4271,3656 4259,3656 4247,3655 4233,3654 4220,3653 4208,3650 4196,3647 Z"/>
         </g>
        </g>
        <g class="com.sun.star.drawing.ClosedBezierShape">
         <g id="id7">
          <rect class="BoundingBox" stroke="none" fill="none" x="4435" y="3174" width="480" height="483"/>
          <path fill="rgb(0,0,0)" stroke="none" d="M 4447,3647 L 4447,3630 C 4460,3626 4472,3619 4483,3609 4494,3599 4500,3589 4500,3577 L 4500,3243 4436,3216 4436,3195 C 4458,3188 4480,3183 4501,3181 4522,3178 4540,3177 4554,3177 L 4578,3177 4578,3230 C 4594,3214 4616,3200 4642,3190 4668,3180 4696,3175 4724,3175 4765,3175 4798,3188 4824,3214 4850,3240 4862,3278 4862,3329 L 4862,3606 4914,3620 4914,3639 C 4901,3644 4885,3648 4868,3651 4850,3654 4831,3656 4810,3656 4799,3656 4789,3655 4777,3654 4766,3653 4756,3650 4746,3647 L 4746,3630 C 4758,3625 4767,3617 4773,3607 4779,3597 4781,3583 4781,3565 L 4781,3376 C 4781,3328 4772,3294 4754,3274 4735,3253 4712,3243 4683,3243 4662,3243 4643,3246 4624,3252 4606,3258 4591,3265 4581,3274 L 4581,3606 4636,3620 4636,3639 C 4620,3645 4603,3649 4585,3652 4567,3655 4546,3656 4522,3656 4510,3656 4497,3655 4484,3654 4471,3653 4459,3650 4447,3647 Z"/>
         </g>
        </g>
        <g class="com.sun.star.drawing.ClosedBezierShape">
         <g id="id8">
          <rect class="BoundingBox" stroke="none" fill="none" x="4962" y="2971" width="202" height="686"/>
          <path fill="rgb(0,0,0)" stroke="none" d="M 5067,3086 C 5053,3086 5040,3081 5030,3070 5020,3059 5015,3046 5015,3030 5015,3014 5020,3001 5030,2989 5040,2977 5054,2971 5071,2971 5085,2971 5097,2976 5107,2986 5118,2995 5123,3008 5123,3025 5123,3042 5117,3056 5107,3068 5096,3080 5083,3086 5067,3086 Z M 4973,3647 L 4973,3630 C 4987,3626 4999,3619 5010,3609 5020,3599 5026,3589 5026,3577 L 5026,3243 4963,3216 4963,3195 C 4985,3189 5007,3184 5028,3181 5049,3178 5066,3177 5080,3177 L 5112,3177 5107,3230 5107,3606 5162,3620 5162,3639 C 5146,3645 5129,3649 5111,3652 5094,3655 5073,3656 5048,3656 5036,3656 5024,3655 5010,3654 4997,3653 4985,3650 4973,3647 Z"/>
         </g>
        </g>
        <g class="com.sun.star.drawing.ClosedBezierShape">
         <g id="id9">
          <rect class="BoundingBox" stroke="none" fill="none" x="5213" y="3168" width="311" height="495"/>
          <path fill="rgb(0,0,0)" stroke="none" d="M 5214,3581 C 5214,3574 5214,3567 5216,3560 5218,3552 5220,3546 5223,3540 5245,3561 5267,3576 5289,3587 5311,3597 5335,3603 5362,3603 5389,3603 5410,3597 5425,3585 5439,3573 5446,3558 5446,3541 5446,3524 5440,3509 5428,3497 5415,3484 5393,3471 5361,3457 L 5311,3437 C 5283,3424 5261,3408 5246,3387 5230,3367 5223,3342 5223,3314 5223,3275 5238,3241 5270,3212 5302,3183 5343,3169 5394,3169 5434,3169 5462,3174 5479,3186 5497,3197 5505,3212 5505,3230 5505,3237 5505,3244 5504,3251 5503,3258 5501,3265 5500,3272 5484,3261 5466,3252 5446,3245 5425,3238 5406,3234 5388,3234 5356,3234 5333,3240 5317,3252 5302,3264 5295,3279 5295,3295 5295,3313 5300,3328 5311,3339 5322,3351 5342,3362 5372,3373 L 5425,3394 C 5461,3408 5486,3425 5501,3444 5515,3463 5523,3488 5523,3517 5523,3554 5506,3588 5472,3617 5439,3647 5394,3662 5339,3662 5296,3662 5264,3655 5244,3641 5224,3627 5214,3607 5214,3581 Z"/>
         </g>
        </g>
        <g class="com.sun.star.drawing.ClosedBezierShape">
         <g id="id10">
          <rect class="BoundingBox" stroke="none" fill="none" x="5567" y="3103" width="275" height="558"/>
          <path fill="rgb(0,0,0)" stroke="none" d="M 5616,3523 C 5616,3499 5616,3474 5617,3449 5618,3424 5618,3400 5619,3377 L 5622,3246 5568,3246 5568,3213 5674,3108 5707,3104 5703,3193 5833,3193 5826,3246 5700,3246 5698,3370 C 5697,3391 5697,3411 5697,3430 L 5697,3486 C 5697,3525 5702,3553 5713,3569 5724,3586 5739,3594 5757,3594 5772,3594 5785,3591 5797,3587 5809,3582 5820,3576 5830,3568 L 5840,3572 C 5838,3601 5828,3623 5811,3638 5793,3652 5767,3660 5734,3660 5694,3660 5665,3649 5645,3627 5626,3605 5616,3570 5616,3523 Z"/>
         </g>
        </g>
        <g class="com.sun.star.drawing.ClosedBezierShape">
         <g id="id11">
          <rect class="BoundingBox" stroke="none" fill="none" x="5856" y="3169" width="379" height="494"/>
          <path fill="rgb(0,0,0)" stroke="none" d="M 5857,3436 C 5857,3350 5878,3284 5921,3238 5964,3193 6012,3170 6063,3170 6116,3170 6158,3186 6189,3220 6219,3253 6234,3298 6234,3355 L 6234,3384 C 6234,3394 6234,3405 6233,3418 L 5942,3418 C 5942,3473 5956,3516 5984,3547 6012,3577 6047,3593 6088,3593 6112,3593 6137,3589 6162,3581 6187,3573 6209,3563 6227,3550 6228,3553 6229,3557 6230,3562 6231,3566 6231,3571 6231,3576 6231,3598 6216,3618 6185,3636 6154,3653 6113,3662 6061,3662 6005,3662 5957,3641 5917,3600 5877,3559 5857,3504 5857,3436 Z M 5943,3366 L 6155,3366 C 6155,3318 6146,3282 6127,3259 6108,3235 6084,3223 6055,3223 6028,3223 6003,3237 5979,3266 5955,3294 5943,3328 5943,3366 Z"/>
         </g>
        </g>
        <g class="com.sun.star.drawing.ClosedBezierShape">
         <g id="id12">
          <rect class="BoundingBox" stroke="none" fill="none" x="6285" y="3171" width="311" height="486"/>
          <path fill="rgb(0,0,0)" stroke="none" d="M 6297,3647 L 6297,3630 C 6310,3626 6322,3619 6333,3609 6344,3599 6350,3589 6350,3577 L 6350,3243 6286,3216 6286,3195 C 6308,3188 6330,3183 6351,3181 6372,3178 6390,3177 6404,3177 L 6428,3177 6428,3246 6429,3246 6457,3215 C 6470,3201 6483,3190 6498,3183 6512,3175 6527,3172 6543,3172 6561,3172 6573,3175 6582,3183 6591,3190 6595,3200 6595,3214 6595,3223 6593,3233 6590,3244 6587,3254 6584,3264 6579,3274 6570,3266 6560,3261 6549,3257 6539,3253 6528,3251 6518,3251 6503,3251 6488,3254 6473,3261 6459,3268 6445,3278 6431,3291 L 6431,3606 6499,3620 6499,3639 C 6483,3645 6465,3649 6447,3652 6428,3655 6405,3656 6376,3656 6362,3656 6348,3655 6334,3654 6321,3653 6309,3650 6297,3647 Z"/>
         </g>
        </g>
        <g class="com.sun.star.drawing.ClosedBezierShape">
         <g id="id13">
          <rect class="BoundingBox" stroke="none" fill="none" x="6601" y="2971" width="202" height="686"/>
          <path fill="rgb(0,0,0)" stroke="none" d="M 6706,3086 C 6692,3086 6679,3081 6669,3070 6659,3059 6654,3046 6654,3030 6654,3014 6659,3001 6669,2989 6679,2977 6693,2971 6710,2971 6724,2971 6736,2976 6746,2986 6757,2995 6762,3008 6762,3025 6762,3042 6756,3056 6746,3068 6735,3080 6722,3086 6706,3086 Z M 6612,3647 L 6612,3630 C 6626,3626 6638,3619 6649,3609 6659,3599 6665,3589 6665,3577 L 6665,3243 6602,3216 6602,3195 C 6624,3189 6646,3184 6667,3181 6688,3178 6705,3177 6719,3177 L 6751,3177 6746,3230 6746,3606 6801,3620 6801,3639 C 6785,3645 6768,3649 6750,3652 6733,3655 6712,3656 6687,3656 6675,3656 6663,3655 6649,3654 6636,3653 6624,3650 6612,3647 Z"/>
         </g>
        </g>
        <g class="com.sun.star.drawing.ClosedBezierShape">
         <g id="id14">
          <rect class="BoundingBox" stroke="none" fill="none" x="6853" y="3169" width="379" height="494"/>
          <path fill="rgb(0,0,0)" stroke="none" d="M 6854,3436 C 6854,3350 6875,3284 6918,3238 6961,3193 7009,3170 7060,3170 7113,3170 7155,3186 7186,3220 7216,3253 7231,3298 7231,3355 L 7231,3384 C 7231,3394 7231,3405 7230,3418 L 6939,3418 C 6939,3473 6953,3516 6981,3547 7009,3577 7044,3593 7085,3593 7109,3593 7134,3589 7159,3581 7184,3573 7206,3563 7224,3550 7225,3553 7226,3557 7227,3562 7228,3566 7228,3571 7228,3576 7228,3598 7213,3618 7182,3636 7151,3653 7110,3662 7058,3662 7002,3662 6954,3641 6914,3600 6874,3559 6854,3504 6854,3436 Z M 6940,3366 L 7152,3366 C 7152,3318 7143,3282 7124,3259 7105,3235 7081,3223 7052,3223 7025,3223 7000,3237 6976,3266 6952,3294 6940,3328 6940,3366 Z"/>
         </g>
        </g>
        <g class="com.sun.star.drawing.PolyPolygonShape">
         <g id="id15">
          <rect class="BoundingBox" stroke="none" fill="none" x="7408" y="3176" width="447" height="486"/>
          <path fill="rgb(0,0,0)" stroke="none" d="M 7617,3661 L 7449,3229 7408,3200 7408,3177 7597,3177 7597,3200 7541,3224 7647,3537 7648,3537 7758,3227 7702,3200 7702,3177 7854,3177 7854,3200 7826,3223 7650,3659 7617,3661 Z"/>
         </g>
        </g>
        <g class="com.sun.star.drawing.ClosedBezierShape">
         <g id="id16">
          <rect class="BoundingBox" stroke="none" fill="none" x="7850" y="3169" width="374" height="495"/>
          <path fill="rgb(0,0,0)" stroke="none" d="M 7851,3552 C 7851,3509 7873,3471 7919,3439 7964,3407 8027,3391 8107,3391 L 8107,3364 C 8107,3311 8101,3276 8087,3260 8073,3243 8051,3235 8020,3235 7993,3235 7966,3241 7941,3252 7915,3263 7892,3279 7871,3299 7871,3295 7870,3290 7869,3285 7869,3280 7868,3275 7868,3270 7868,3238 7881,3213 7906,3196 7932,3179 7973,3170 8030,3170 8080,3170 8119,3182 8147,3205 8175,3229 8189,3261 8189,3302 8189,3313 8189,3328 8188,3349 8187,3370 8186,3387 8186,3402 L 8183,3562 C 8186,3571 8191,3579 8198,3589 8206,3598 8214,3606 8222,3612 8215,3621 8205,3630 8192,3639 8180,3648 8167,3656 8155,3663 8146,3657 8137,3650 8130,3642 8122,3634 8115,3625 8109,3614 8096,3628 8077,3639 8052,3648 8028,3657 8002,3662 7976,3662 7939,3662 7909,3651 7886,3631 7862,3610 7851,3584 7851,3552 Z M 7936,3537 C 7936,3557 7942,3573 7955,3585 7969,3597 7988,3603 8013,3603 8028,3603 8044,3600 8062,3595 8080,3589 8095,3583 8107,3576 L 8107,3438 C 8052,3438 8010,3448 7980,3468 7950,3488 7936,3511 7936,3537 Z"/>
         </g>
        </g>
        <g class="com.sun.star.drawing.ClosedBezierShape">
         <g id="id17">
          <rect class="BoundingBox" stroke="none" fill="none" x="8276" y="3174" width="480" height="483"/>
          <path fill="rgb(0,0,0)" stroke="none" d="M 8288,3647 L 8288,3630 C 8301,3626 8313,3619 8324,3609 8335,3599 8341,3589 8341,3577 L 8341,3243 8277,3216 8277,3195 C 8299,3188 8321,3183 8342,3181 8363,3178 8381,3177 8395,3177 L 8419,3177 8419,3230 C 8435,3214 8457,3200 8483,3190 8509,3180 8537,3175 8565,3175 8606,3175 8639,3188 8665,3214 8691,3240 8703,3278 8703,3329 L 8703,3606 8755,3620 8755,3639 C 8742,3644 8726,3648 8709,3651 8691,3654 8672,3656 8651,3656 8640,3656 8630,3655 8618,3654 8607,3653 8597,3650 8587,3647 L 8587,3630 C 8599,3625 8608,3617 8614,3607 8620,3597 8622,3583 8622,3565 L 8622,3376 C 8622,3328 8613,3294 8595,3274 8576,3253 8553,3243 8524,3243 8503,3243 8484,3246 8465,3252 8447,3258 8432,3265 8422,3274 L 8422,3606 8477,3620 8477,3639 C 8461,3645 8444,3649 8426,3652 8408,3655 8387,3656 8363,3656 8351,3656 8338,3655 8325,3654 8312,3653 8300,3650 8288,3647 Z"/>
         </g>
        </g>
        <g class="com.sun.star.drawing.ClosedBezierShape">
         <g id="id18">
          <rect class="BoundingBox" stroke="none" fill="none" x="8941" y="3011" width="519" height="646"/>
          <path fill="rgb(0,0,0)" stroke="none" d="M 9188,3656 L 8994,3065 8941,3048 8941,3028 C 8958,3022 8974,3018 8990,3016 9006,3013 9022,3012 9039,3012 9057,3012 9072,3012 9084,3013 9095,3014 9111,3017 9130,3021 L 9130,3039 C 9114,3044 9104,3052 9099,3063 9095,3073 9095,3086 9099,3101 L 9218,3506 9219,3506 9347,3066 9285,3049 9285,3029 C 9303,3023 9321,3019 9338,3016 9355,3013 9373,3012 9392,3012 9404,3012 9416,3013 9426,3014 9437,3016 9448,3018 9459,3022 L 9459,3040 C 9446,3045 9435,3052 9426,3063 9417,3073 9409,3088 9402,3109 L 9228,3653 9188,3656 Z"/>
         </g>
        </g>
        <g class="com.sun.star.drawing.ClosedBezierShape">
         <g id="id19">
          <rect class="BoundingBox" stroke="none" fill="none" x="9444" y="3168" width="450" height="496"/>
          <path fill="rgb(0,0,0)" stroke="none" d="M 9445,3435 C 9445,3354 9468,3290 9515,3241 9562,3193 9616,3169 9677,3169 9737,3169 9788,3190 9830,3232 9871,3273 9892,3329 9892,3397 9892,3478 9868,3543 9820,3591 9773,3639 9720,3663 9661,3663 9602,3663 9551,3643 9508,3603 9466,3562 9445,3506 9445,3435 Z M 9534,3425 C 9534,3484 9548,3529 9574,3560 9601,3590 9632,3606 9667,3606 9700,3606 9731,3589 9759,3556 9788,3523 9802,3473 9802,3406 9802,3349 9789,3304 9762,3273 9735,3242 9705,3226 9670,3226 9636,3226 9605,3243 9577,3276 9549,3310 9534,3359 9534,3425 Z"/>
         </g>
        </g>
        <g class="com.sun.star.drawing.ClosedBezierShape">
         <g id="id20">
          <rect class="BoundingBox" stroke="none" fill="none" x="9948" y="2937" width="203" height="720"/>
          <path fill="rgb(0,0,0)" stroke="none" d="M 9960,3647 L 9960,3630 C 9973,3626 9985,3619 9996,3609 10007,3599 10013,3589 10013,3577 L 10013,3004 9949,2977 9949,2955 C 9971,2949 9993,2944 10014,2942 10036,2939 10053,2938 10067,2938 L 10099,2938 10094,2993 10094,3606 10149,3620 10149,3639 C 10133,3645 10116,3649 10098,3652 10080,3655 10059,3656 10035,3656 10023,3656 10010,3655 9997,3654 9984,3653 9972,3650 9960,3647 Z"/>
         </g>
        </g>
        <g class="com.sun.star.drawing.ClosedBezierShape">
         <g id="id21">
          <rect class="BoundingBox" stroke="none" fill="none" x="10194" y="2937" width="453" height="720"/>
          <path fill="rgb(0,0,0)" stroke="none" d="M 10206,3647 L 10206,3630 C 10220,3626 10232,3619 10243,3609 10254,3599 10260,3589 10260,3577 L 10260,3004 10195,2977 10195,2955 C 10217,2949 10239,2944 10260,2942 10282,2939 10299,2938 10313,2938 L 10347,2938 10341,2993 10341,3388 10395,3341 C 10421,3318 10445,3292 10466,3262 10487,3231 10497,3205 10497,3183 10505,3180 10514,3178 10522,3177 10530,3175 10539,3175 10549,3175 10557,3175 10563,3176 10570,3177 10576,3179 10582,3181 10589,3184 10588,3205 10577,3231 10555,3262 10533,3293 10499,3325 10454,3358 L 10420,3382 10572,3567 C 10586,3583 10599,3595 10611,3603 10623,3611 10635,3614 10645,3614 L 10645,3635 C 10635,3642 10623,3648 10612,3651 10600,3654 10587,3656 10572,3656 10558,3656 10545,3653 10533,3647 10522,3640 10511,3631 10502,3618 L 10341,3406 10341,3606 10392,3621 10392,3640 C 10374,3646 10356,3650 10340,3652 10323,3655 10304,3656 10281,3656 10269,3656 10257,3655 10244,3654 10230,3653 10218,3650 10206,3647 Z"/>
         </g>
        </g>
        <g class="com.sun.star.drawing.ClosedBezierShape">
         <g id="id22">
          <rect class="BoundingBox" stroke="none" fill="none" x="10641" y="3168" width="311" height="495"/>
          <path fill="rgb(0,0,0)" stroke="none" d="M 10642,3581 C 10642,3574 10642,3567 10644,3560 10646,3552 10648,3546 10651,3540 10673,3561 10695,3576 10717,3587 10739,3597 10763,3603 10790,3603 10817,3603 10838,3597 10853,3585 10867,3573 10874,3558 10874,3541 10874,3524 10868,3509 10856,3497 10843,3484 10821,3471 10789,3457 L 10739,3437 C 10711,3424 10689,3408 10674,3387 10658,3367 10651,3342 10651,3314 10651,3275 10666,3241 10698,3212 10730,3183 10771,3169 10822,3169 10862,3169 10890,3174 10907,3186 10925,3197 10933,3212 10933,3230 10933,3237 10933,3244 10932,3251 10931,3258 10929,3265 10928,3272 10912,3261 10894,3252 10874,3245 10853,3238 10834,3234 10816,3234 10784,3234 10761,3240 10745,3252 10730,3264 10723,3279 10723,3295 10723,3313 10728,3328 10739,3339 10750,3351 10770,3362 10800,3373 L 10853,3394 C 10889,3408 10914,3425 10929,3444 10943,3463 10951,3488 10951,3517 10951,3554 10934,3588 10900,3617 10867,3647 10822,3662 10767,3662 10724,3662 10692,3655 10672,3641 10652,3627 10642,3607 10642,3581 Z"/>
         </g>
        </g>
        <g class="com.sun.star.drawing.ClosedBezierShape">
         <g id="id23">
          <rect class="BoundingBox" stroke="none" fill="none" x="10983" y="3168" width="451" height="728"/>
          <path fill="rgb(0,0,0)" stroke="none" d="M 11181,3482 C 11212,3482 11237,3471 11258,3448 11279,3425 11289,3390 11289,3342 11289,3300 11279,3269 11259,3249 11240,3229 11217,3219 11190,3219 11162,3219 11137,3232 11117,3257 11097,3282 11086,3316 11086,3358 11086,3400 11096,3431 11116,3451 11135,3472 11157,3482 11181,3482 Z M 11019,3592 C 11019,3573 11026,3555 11040,3538 11054,3521 11070,3509 11088,3503 L 11088,3502 C 11066,3493 11046,3477 11027,3452 11009,3427 11000,3398 11000,3364 11000,3309 11019,3263 11058,3225 11097,3188 11143,3169 11196,3169 11217,3169 11237,3172 11258,3179 11279,3186 11294,3194 11303,3201 11311,3193 11324,3185 11341,3179 11358,3173 11374,3170 11390,3170 11398,3170 11406,3170 11414,3172 11422,3173 11428,3174 11432,3176 L 11425,3241 C 11410,3238 11393,3235 11375,3233 11357,3231 11339,3230 11320,3230 L 11320,3231 C 11336,3244 11350,3260 11360,3279 11371,3298 11376,3318 11376,3339 11376,3396 11356,3442 11316,3478 11275,3514 11229,3531 11175,3531 11165,3531 11154,3530 11143,3528 11132,3526 11123,3523 11114,3520 11107,3524 11100,3531 11093,3540 11086,3550 11082,3558 11082,3567 11082,3581 11088,3593 11100,3601 11111,3608 11127,3612 11146,3612 L 11284,3611 C 11326,3611 11357,3620 11380,3639 11402,3658 11413,3686 11413,3722 11413,3769 11390,3809 11344,3844 11298,3878 11241,3895 11172,3895 11110,3895 11064,3884 11032,3861 11000,3839 10984,3812 10984,3779 10984,3753 10993,3730 11011,3710 11029,3690 11051,3677 11078,3670 L 11078,3669 C 11059,3662 11045,3652 11035,3639 11024,3626 11019,3610 11019,3592 Z M 11059,3763 C 11059,3783 11069,3801 11091,3815 11112,3830 11144,3838 11185,3838 11232,3838 11270,3828 11298,3809 11327,3789 11341,3768 11341,3744 11341,3725 11335,3710 11323,3699 11310,3689 11292,3684 11268,3684 L 11109,3684 C 11095,3690 11083,3701 11073,3716 11064,3730 11059,3746 11059,3763 Z"/>
         </g>
        </g>
        <g class="com.sun.star.drawing.ClosedBezierShape">
         <g id="id24">
          <rect class="BoundingBox" stroke="none" fill="none" x="11449" y="3169" width="379" height="494"/>
          <path fill="rgb(0,0,0)" stroke="none" d="M 11450,3436 C 11450,3350 11471,3284 11514,3238 11557,3193 11605,3170 11656,3170 11709,3170 11751,3186 11782,3220 11812,3253 11827,3298 11827,3355 L 11827,3384 C 11827,3394 11827,3405 11826,3418 L 11535,3418 C 11535,3473 11549,3516 11577,3547 11605,3577 11640,3593 11681,3593 11705,3593 11730,3589 11755,3581 11780,3573 11802,3563 11820,3550 11821,3553 11822,3557 11823,3562 11824,3566 11824,3571 11824,3576 11824,3598 11809,3618 11778,3636 11747,3653 11706,3662 11654,3662 11598,3662 11550,3641 11510,3600 11470,3559 11450,3504 11450,3436 Z M 11536,3366 L 11748,3366 C 11748,3318 11739,3282 11720,3259 11701,3235 11677,3223 11648,3223 11621,3223 11596,3237 11572,3266 11548,3294 11536,3328 11536,3366 Z"/>
         </g>
        </g>
        <g class="com.sun.star.drawing.ClosedBezierShape">
         <g id="id25">
          <rect class="BoundingBox" stroke="none" fill="none" x="11857" y="3180" width="361" height="468"/>
          <path fill="rgb(0,0,0)" stroke="none" d="M 11858,3632 L 12101,3237 11985,3237 C 11966,3237 11951,3241 11939,3249 11927,3257 11919,3267 11914,3279 L 11905,3304 11876,3304 11886,3181 12203,3182 12211,3199 11970,3592 12092,3592 C 12118,3592 12136,3589 12148,3582 12159,3576 12168,3567 12174,3554 L 12190,3522 12216,3522 12203,3647 11866,3647 11858,3632 Z"/>
         </g>
        </g>
        <g class="com.sun.star.drawing.ClosedBezierShape">
         <g id="id26">
          <rect class="BoundingBox" stroke="none" fill="none" x="12249" y="3168" width="450" height="496"/>
          <path fill="rgb(0,0,0)" stroke="none" d="M 12250,3435 C 12250,3354 12273,3290 12320,3241 12367,3193 12421,3169 12482,3169 12542,3169 12593,3190 12635,3232 12676,3273 12697,3329 12697,3397 12697,3478 12673,3543 12625,3591 12578,3639 12525,3663 12466,3663 12407,3663 12356,3643 12313,3603 12271,3562 12250,3506 12250,3435 Z M 12339,3425 C 12339,3484 12353,3529 12379,3560 12406,3590 12437,3606 12472,3606 12505,3606 12536,3589 12564,3556 12593,3523 12607,3473 12607,3406 12607,3349 12594,3304 12567,3273 12540,3242 12510,3226 12475,3226 12441,3226 12410,3243 12382,3276 12354,3310 12339,3359 12339,3425 Z"/>
         </g>
        </g>
        <g class="com.sun.star.drawing.ClosedBezierShape">
         <g id="id27">
          <rect class="BoundingBox" stroke="none" fill="none" x="12753" y="3174" width="480" height="483"/>
          <path fill="rgb(0,0,0)" stroke="none" d="M 12765,3647 L 12765,3630 C 12778,3626 12790,3619 12801,3609 12812,3599 12818,3589 12818,3577 L 12818,3243 12754,3216 12754,3195 C 12776,3188 12798,3183 12819,3181 12840,3178 12858,3177 12872,3177 L 12896,3177 12896,3230 C 12912,3214 12934,3200 12960,3190 12986,3180 13014,3175 13042,3175 13083,3175 13116,3188 13142,3214 13168,3240 13180,3278 13180,3329 L 13180,3606 13232,3620 13232,3639 C 13219,3644 13203,3648 13186,3651 13168,3654 13149,3656 13128,3656 13117,3656 13107,3655 13095,3654 13084,3653 13074,3650 13064,3647 L 13064,3630 C 13076,3625 13085,3617 13091,3607 13097,3597 13099,3583 13099,3565 L 13099,3376 C 13099,3328 13090,3294 13072,3274 13053,3253 13030,3243 13001,3243 12980,3243 12961,3246 12942,3252 12924,3258 12909,3265 12899,3274 L 12899,3606 12954,3620 12954,3639 C 12938,3645 12921,3649 12903,3652 12885,3655 12864,3656 12840,3656 12828,3656 12815,3655 12802,3654 12789,3653 12777,3650 12765,3647 Z"/>
         </g>
        </g>
        <g class="com.sun.star.drawing.ClosedBezierShape">
         <g id="id28">
          <rect class="BoundingBox" stroke="none" fill="none" x="13282" y="2937" width="425" height="727"/>
          <path fill="rgb(0,0,0)" stroke="none" d="M 13283,3445 C 13283,3357 13306,3289 13353,3242 13399,3194 13455,3171 13519,3171 13531,3171 13543,3171 13556,3173 13569,3174 13579,3176 13587,3178 L 13587,3004 13520,2977 13520,2955 C 13542,2949 13564,2944 13587,2942 13609,2939 13628,2938 13642,2938 L 13674,2938 13668,2993 13668,3559 C 13671,3569 13676,3579 13682,3589 13688,3599 13696,3608 13705,3616 13696,3625 13685,3633 13674,3641 13663,3648 13650,3656 13636,3663 13626,3655 13617,3646 13609,3635 13600,3625 13593,3614 13589,3604 13573,3620 13553,3634 13529,3644 13505,3655 13483,3660 13462,3660 13413,3660 13371,3640 13335,3602 13300,3563 13283,3511 13283,3445 Z M 13487,3596 C 13506,3596 13524,3593 13543,3587 13562,3581 13577,3573 13588,3564 L 13588,3237 C 13579,3234 13568,3232 13555,3230 13542,3227 13529,3226 13516,3226 13474,3226 13439,3243 13411,3277 13383,3310 13369,3361 13369,3430 13369,3483 13381,3524 13405,3553 13429,3581 13456,3596 13487,3596 Z"/>
         </g>
        </g>
        <g class="com.sun.star.drawing.ClosedBezierShape">
         <g id="id29">
          <rect class="BoundingBox" stroke="none" fill="none" x="13766" y="2937" width="480" height="720"/>
          <path fill="rgb(0,0,0)" stroke="none" d="M 13778,3647 L 13778,3630 C 13792,3626 13804,3619 13815,3609 13825,3599 13831,3589 13831,3577 L 13831,3004 13767,2977 13767,2955 C 13789,2949 13810,2944 13830,2942 13850,2939 13869,2938 13885,2938 L 13917,2938 13912,2993 13912,3229 C 13930,3212 13950,3199 13974,3189 13997,3180 14024,3175 14055,3175 14097,3175 14130,3188 14155,3214 14181,3240 14193,3278 14193,3329 L 14193,3606 14245,3620 14245,3639 C 14231,3644 14215,3648 14198,3651 14180,3654 14161,3656 14140,3656 14130,3656 14119,3655 14108,3654 14096,3653 14086,3650 14077,3647 L 14077,3630 C 14089,3625 14098,3617 14103,3607 14109,3597 14112,3583 14112,3565 L 14112,3376 C 14112,3328 14103,3294 14085,3274 14066,3253 14042,3243 14012,3243 13993,3243 13974,3246 13956,3252 13938,3258 13923,3265 13912,3274 L 13912,3606 13967,3620 13967,3639 C 13951,3645 13934,3649 13916,3652 13899,3655 13878,3656 13853,3656 13841,3656 13829,3655 13815,3654 13802,3653 13790,3650 13778,3647 Z"/>
         </g>
        </g>
        <g class="com.sun.star.drawing.ClosedBezierShape">
         <g id="id30">
          <rect class="BoundingBox" stroke="none" fill="none" x="14295" y="3169" width="379" height="494"/>
          <path fill="rgb(0,0,0)" stroke="none" d="M 14296,3436 C 14296,3350 14317,3284 14360,3238 14403,3193 14451,3170 14502,3170 14555,3170 14597,3186 14628,3220 14658,3253 14673,3298 14673,3355 L 14673,3384 C 14673,3394 14673,3405 14672,3418 L 14381,3418 C 14381,3473 14395,3516 14423,3547 14451,3577 14486,3593 14527,3593 14551,3593 14576,3589 14601,3581 14626,3573 14648,3563 14666,3550 14667,3553 14668,3557 14669,3562 14670,3566 14670,3571 14670,3576 14670,3598 14655,3618 14624,3636 14593,3653 14552,3662 14500,3662 14444,3662 14396,3641 14356,3600 14316,3559 14296,3504 14296,3436 Z M 14382,3366 L 14594,3366 C 14594,3318 14585,3282 14566,3259 14547,3235 14523,3223 14494,3223 14467,3223 14442,3237 14418,3266 14394,3294 14382,3328 14382,3366 Z"/>
         </g>
        </g>
        <g class="com.sun.star.drawing.ClosedBezierShape">
         <g id="id31">
          <rect class="BoundingBox" stroke="none" fill="none" x="14726" y="2971" width="202" height="686"/>
          <path fill="rgb(0,0,0)" stroke="none" d="M 14831,3086 C 14817,3086 14804,3081 14794,3070 14784,3059 14779,3046 14779,3030 14779,3014 14784,3001 14794,2989 14804,2977 14818,2971 14835,2971 14849,2971 14861,2976 14871,2986 14882,2995 14887,3008 14887,3025 14887,3042 14881,3056 14871,3068 14860,3080 14847,3086 14831,3086 Z M 14737,3647 L 14737,3630 C 14751,3626 14763,3619 14774,3609 14784,3599 14790,3589 14790,3577 L 14790,3243 14727,3216 14727,3195 C 14749,3189 14771,3184 14792,3181 14813,3178 14830,3177 14844,3177 L 14876,3177 14871,3230 14871,3606 14926,3620 14926,3639 C 14910,3645 14893,3649 14875,3652 14858,3655 14837,3656 14812,3656 14800,3656 14788,3655 14774,3654 14761,3653 14749,3650 14737,3647 Z"/>
         </g>
        </g>
        <g class="com.sun.star.drawing.ClosedBezierShape">
         <g id="id32">
          <rect class="BoundingBox" stroke="none" fill="none" x="14979" y="2937" width="425" height="727"/>
          <path fill="rgb(0,0,0)" stroke="none" d="M 14980,3445 C 14980,3357 15003,3289 15050,3242 15096,3194 15152,3171 15216,3171 15228,3171 15240,3171 15253,3173 15266,3174 15276,3176 15284,3178 L 15284,3004 15217,2977 15217,2955 C 15239,2949 15261,2944 15284,2942 15306,2939 15325,2938 15339,2938 L 15371,2938 15365,2993 15365,3559 C 15368,3569 15373,3579 15379,3589 15385,3599 15393,3608 15402,3616 15393,3625 15382,3633 15371,3641 15360,3648 15347,3656 15333,3663 15323,3655 15314,3646 15306,3635 15297,3625 15290,3614 15286,3604 15270,3620 15250,3634 15226,3644 15202,3655 15180,3660 15159,3660 15110,3660 15068,3640 15032,3602 14997,3563 14980,3511 14980,3445 Z M 15184,3596 C 15203,3596 15221,3593 15240,3587 15259,3581 15274,3573 15285,3564 L 15285,3237 C 15276,3234 15265,3232 15252,3230 15239,3227 15226,3226 15213,3226 15171,3226 15136,3243 15108,3277 15080,3310 15066,3361 15066,3430 15066,3483 15078,3524 15102,3553 15126,3581 15153,3596 15184,3596 Z"/>
         </g>
        </g>
        <g class="com.sun.star.drawing.ClosedBezierShape">
         <g id="id33">
          <rect class="BoundingBox" stroke="none" fill="none" x="15477" y="3539" width="145" height="240"/>
          <path fill="rgb(0,0,0)" stroke="none" d="M 15504,3583 C 15512,3570 15522,3560 15534,3552 15546,3543 15557,3539 15567,3539 15582,3539 15595,3544 15605,3555 15616,3565 15621,3579 15621,3596 15621,3641 15606,3681 15578,3716 15549,3751 15525,3771 15504,3777 L 15477,3771 C 15498,3749 15513,3727 15523,3704 15534,3680 15539,3655 15539,3626 L 15504,3583 Z"/>
         </g>
        </g>
        <g class="com.sun.star.drawing.ClosedBezierShape">
         <g id="id34">
          <rect class="BoundingBox" stroke="none" fill="none" x="3382" y="3991" width="803" height="646"/>
          <path fill="rgb(0,0,0)" stroke="none" d="M 3621,4636 L 3437,4046 3382,4029 3382,4009 C 3399,4003 3416,3999 3433,3996 3451,3993 3467,3992 3483,3992 3499,3992 3514,3992 3527,3993 3541,3994 3556,3997 3571,4001 L 3571,4019 C 3556,4023 3546,4029 3541,4038 3536,4047 3536,4060 3540,4076 L 3648,4474 3649,4474 3754,4046 3701,4030 3701,4009 C 3720,4003 3738,3999 3755,3997 3773,3994 3791,3993 3809,3993 3824,3993 3838,3994 3853,3995 3867,3997 3879,3999 3889,4003 L 3889,4021 C 3879,4025 3873,4030 3870,4039 3867,4047 3867,4058 3870,4073 L 3966,4473 3967,4473 4076,4047 4016,4028 4016,4008 C 4034,4002 4052,3998 4069,3996 4086,3993 4103,3992 4119,3992 4132,3992 4144,3993 4154,3994 4164,3996 4174,3998 4183,4002 L 4183,4019 C 4171,4028 4161,4037 4153,4048 4145,4058 4139,4071 4134,4089 L 3972,4632 3934,4636 3796,4114 3795,4114 3659,4632 3621,4636 Z"/>
         </g>
        </g>
        <g class="com.sun.star.drawing.ClosedBezierShape">
         <g id="id35">
          <rect class="BoundingBox" stroke="none" fill="none" x="4175" y="4149" width="379" height="494"/>
          <path fill="rgb(0,0,0)" stroke="none" d="M 4176,4416 C 4176,4330 4197,4264 4240,4218 4283,4173 4331,4150 4382,4150 4435,4150 4477,4166 4508,4200 4538,4233 4553,4278 4553,4335 L 4553,4364 C 4553,4374 4553,4385 4552,4398 L 4261,4398 C 4261,4453 4275,4496 4303,4527 4331,4557 4366,4573 4407,4573 4431,4573 4456,4569 4481,4561 4506,4553 4528,4543 4546,4530 4547,4533 4548,4537 4549,4542 4550,4546 4550,4551 4550,4556 4550,4578 4535,4598 4504,4616 4473,4633 4432,4642 4380,4642 4324,4642 4276,4621 4236,4580 4196,4539 4176,4484 4176,4416 Z M 4262,4346 L 4474,4346 C 4474,4298 4465,4262 4446,4239 4427,4215 4403,4203 4374,4203 4347,4203 4322,4217 4298,4246 4274,4274 4262,4308 4262,4346 Z"/>
         </g>
        </g>
        <g class="com.sun.star.drawing.ClosedBezierShape">
         <g id="id36">
          <rect class="BoundingBox" stroke="none" fill="none" x="4604" y="3917" width="203" height="720"/>
          <path fill="rgb(0,0,0)" stroke="none" d="M 4616,4627 L 4616,4610 C 4629,4606 4641,4599 4652,4589 4663,4579 4669,4569 4669,4557 L 4669,3984 4605,3957 4605,3935 C 4627,3929 4649,3924 4670,3922 4692,3919 4709,3918 4723,3918 L 4755,3918 4750,3973 4750,4586 4805,4600 4805,4619 C 4789,4625 4772,4629 4754,4632 4736,4635 4715,4636 4691,4636 4679,4636 4666,4635 4653,4634 4640,4633 4628,4630 4616,4627 Z"/>
         </g>
        </g>
        <g class="com.sun.star.drawing.ClosedBezierShape">
         <g id="id37">
          <rect class="BoundingBox" stroke="none" fill="none" x="4833" y="4160" width="361" height="469"/>
          <path fill="rgb(0,0,0)" stroke="none" d="M 4834,4612 L 5077,4217 4961,4217 C 4942,4217 4927,4221 4915,4229 4903,4237 4895,4247 4890,4259 L 4881,4284 4852,4284 4862,4161 5179,4162 5187,4179 4946,4572 5068,4572 C 5094,4572 5112,4569 5124,4562 5135,4556 5144,4547 5150,4534 L 5166,4502 5192,4502 5179,4627 4842,4627 4834,4612 Z"/>
         </g>
        </g>
        <g class="com.sun.star.drawing.ClosedBezierShape">
         <g id="id38">
          <rect class="BoundingBox" stroke="none" fill="none" x="5221" y="3951" width="202" height="686"/>
          <path fill="rgb(0,0,0)" stroke="none" d="M 5326,4066 C 5312,4066 5299,4061 5289,4050 5279,4039 5274,4026 5274,4010 5274,3994 5279,3981 5289,3969 5299,3957 5313,3951 5330,3951 5344,3951 5356,3956 5366,3966 5377,3975 5382,3988 5382,4005 5382,4022 5376,4036 5366,4048 5355,4060 5342,4066 5326,4066 Z M 5232,4627 L 5232,4610 C 5246,4606 5258,4599 5269,4589 5279,4579 5285,4569 5285,4557 L 5285,4223 5222,4196 5222,4175 C 5244,4169 5266,4164 5287,4161 5308,4158 5325,4157 5339,4157 L 5371,4157 5366,4210 5366,4586 5421,4600 5421,4619 C 5405,4625 5388,4629 5370,4632 5353,4635 5332,4636 5307,4636 5295,4636 5283,4635 5269,4634 5256,4633 5244,4630 5232,4627 Z"/>
         </g>
        </g>
        <g class="com.sun.star.drawing.ClosedBezierShape">
         <g id="id39">
          <rect class="BoundingBox" stroke="none" fill="none" x="5449" y="3951" width="185" height="919"/>
          <path fill="rgb(0,0,0)" stroke="none" d="M 5577,4066 C 5563,4066 5551,4061 5540,4050 5530,4039 5525,4026 5525,4010 5525,3994 5530,3981 5540,3969 5551,3957 5564,3951 5581,3951 5595,3951 5607,3956 5617,3966 5628,3975 5633,3988 5633,4005 5633,4022 5627,4036 5617,4048 5606,4060 5593,4066 5577,4066 Z M 5536,4678 L 5536,4223 5473,4196 5473,4175 C 5495,4169 5517,4164 5538,4161 5559,4158 5577,4157 5591,4157 L 5623,4157 5617,4212 5617,4656 C 5617,4736 5606,4791 5585,4822 5563,4853 5537,4868 5505,4868 5495,4868 5484,4866 5474,4862 5464,4858 5456,4852 5450,4844 L 5450,4829 C 5472,4829 5491,4816 5509,4791 5527,4766 5536,4728 5536,4678 Z"/>
         </g>
        </g>
        <g class="com.sun.star.drawing.ClosedBezierShape">
         <g id="id40">
          <rect class="BoundingBox" stroke="none" fill="none" x="5713" y="4154" width="480" height="483"/>
          <path fill="rgb(0,0,0)" stroke="none" d="M 5725,4627 L 5725,4610 C 5738,4606 5750,4599 5761,4589 5772,4579 5778,4569 5778,4557 L 5778,4223 5714,4196 5714,4175 C 5736,4168 5758,4163 5779,4161 5800,4158 5818,4157 5832,4157 L 5856,4157 5856,4210 C 5872,4194 5894,4180 5920,4170 5946,4160 5974,4155 6002,4155 6043,4155 6076,4168 6102,4194 6128,4220 6140,4258 6140,4309 L 6140,4586 6192,4600 6192,4619 C 6179,4624 6163,4628 6146,4631 6128,4634 6109,4636 6088,4636 6077,4636 6067,4635 6055,4634 6044,4633 6034,4630 6024,4627 L 6024,4610 C 6036,4605 6045,4597 6051,4587 6057,4577 6059,4563 6059,4545 L 6059,4356 C 6059,4308 6050,4274 6032,4254 6013,4233 5990,4223 5961,4223 5940,4223 5921,4226 5902,4232 5884,4238 5869,4245 5859,4254 L 5859,4586 5914,4600 5914,4619 C 5898,4625 5881,4629 5863,4632 5845,4635 5824,4636 5800,4636 5788,4636 5775,4635 5762,4634 5749,4633 5737,4630 5725,4627 Z"/>
         </g>
        </g>
        <g class="com.sun.star.drawing.ClosedBezierShape">
         <g id="id41">
          <rect class="BoundingBox" stroke="none" fill="none" x="6421" y="4149" width="379" height="494"/>
          <path fill="rgb(0,0,0)" stroke="none" d="M 6422,4416 C 6422,4330 6443,4264 6486,4218 6529,4173 6577,4150 6628,4150 6681,4150 6723,4166 6754,4200 6784,4233 6799,4278 6799,4335 L 6799,4364 C 6799,4374 6799,4385 6798,4398 L 6507,4398 C 6507,4453 6521,4496 6549,4527 6577,4557 6612,4573 6653,4573 6677,4573 6702,4569 6727,4561 6752,4553 6774,4543 6792,4530 6793,4533 6794,4537 6795,4542 6796,4546 6796,4551 6796,4556 6796,4578 6781,4598 6750,4616 6719,4633 6678,4642 6626,4642 6570,4642 6522,4621 6482,4580 6442,4539 6422,4484 6422,4416 Z M 6508,4346 L 6720,4346 C 6720,4298 6711,4262 6692,4239 6673,4215 6649,4203 6620,4203 6593,4203 6568,4217 6544,4246 6520,4274 6508,4308 6508,4346 Z"/>
         </g>
        </g>
        <g class="com.sun.star.drawing.ClosedBezierShape">
         <g id="id42">
          <rect class="BoundingBox" stroke="none" fill="none" x="6846" y="4154" width="480" height="483"/>
          <path fill="rgb(0,0,0)" stroke="none" d="M 6858,4627 L 6858,4610 C 6871,4606 6883,4599 6894,4589 6905,4579 6911,4569 6911,4557 L 6911,4223 6847,4196 6847,4175 C 6869,4168 6891,4163 6912,4161 6933,4158 6951,4157 6965,4157 L 6989,4157 6989,4210 C 7005,4194 7027,4180 7053,4170 7079,4160 7107,4155 7135,4155 7176,4155 7209,4168 7235,4194 7261,4220 7273,4258 7273,4309 L 7273,4586 7325,4600 7325,4619 C 7312,4624 7296,4628 7279,4631 7261,4634 7242,4636 7221,4636 7210,4636 7200,4635 7188,4634 7177,4633 7167,4630 7157,4627 L 7157,4610 C 7169,4605 7178,4597 7184,4587 7190,4577 7192,4563 7192,4545 L 7192,4356 C 7192,4308 7183,4274 7165,4254 7146,4233 7123,4223 7094,4223 7073,4223 7054,4226 7035,4232 7017,4238 7002,4245 6992,4254 L 6992,4586 7047,4600 7047,4619 C 7031,4625 7014,4629 6996,4632 6978,4635 6957,4636 6933,4636 6921,4636 6908,4635 6895,4634 6882,4633 6870,4630 6858,4627 Z"/>
         </g>
        </g>
        <g class="com.sun.star.drawing.ClosedBezierShape">
         <g id="id43">
          <rect class="BoundingBox" stroke="none" fill="none" x="7551" y="3986" width="374" height="655"/>
          <path fill="rgb(0,0,0)" stroke="none" d="M 7552,4619 L 7552,4476 7580,4476 7587,4501 C 7594,4528 7607,4547 7625,4560 7643,4572 7671,4579 7709,4579 7745,4579 7776,4569 7801,4550 7826,4531 7838,4506 7838,4476 7838,4457 7831,4438 7818,4420 7804,4401 7782,4383 7752,4365 L 7658,4310 C 7628,4292 7605,4271 7591,4246 7576,4221 7568,4192 7568,4160 7568,4111 7588,4070 7629,4037 7669,4003 7718,3987 7775,3987 7805,3987 7831,3989 7852,3992 7873,3996 7893,4002 7913,4010 L 7904,4149 7876,4149 7872,4129 C 7865,4099 7854,4078 7838,4066 7822,4055 7798,4049 7765,4049 7729,4049 7701,4058 7680,4077 7659,4096 7648,4118 7648,4142 7648,4162 7654,4181 7665,4197 7676,4213 7695,4228 7722,4242 L 7819,4295 C 7854,4313 7879,4336 7897,4361 7914,4387 7923,4416 7923,4447 7923,4499 7901,4544 7858,4582 7814,4621 7763,4640 7704,4640 7673,4640 7645,4638 7620,4635 7596,4632 7573,4626 7552,4619 Z"/>
         </g>
        </g>
        <g class="com.sun.star.drawing.ClosedBezierShape">
         <g id="id44">
          <rect class="BoundingBox" stroke="none" fill="none" x="7974" y="4151" width="452" height="720"/>
          <path fill="rgb(0,0,0)" stroke="none" d="M 8119,4576 C 8127,4578 8137,4580 8148,4581 8159,4582 8170,4583 8182,4583 8226,4583 8263,4567 8293,4535 8324,4503 8339,4452 8339,4382 8339,4328 8326,4287 8300,4259 8273,4232 8243,4218 8210,4218 8192,4218 8176,4220 8160,4224 8145,4228 8131,4233 8119,4241 L 8119,4576 Z M 8120,4626 L 8120,4820 8185,4833 8185,4853 C 8169,4859 8150,4862 8130,4865 8109,4868 8086,4869 8061,4869 8049,4869 8036,4868 8023,4867 8010,4866 7998,4863 7987,4860 L 7987,4843 C 7999,4839 8011,4832 8022,4823 8033,4813 8039,4803 8039,4790 L 8039,4223 7975,4196 7975,4175 C 7997,4168 8019,4163 8040,4161 8061,4158 8079,4157 8093,4157 L 8117,4157 8117,4202 C 8133,4188 8152,4176 8176,4166 8199,4157 8222,4152 8244,4152 8294,4152 8336,4170 8371,4206 8407,4242 8424,4293 8424,4359 8424,4451 8400,4520 8351,4567 8302,4614 8246,4638 8183,4638 8173,4638 8161,4637 8150,4634 8138,4632 8128,4629 8120,4626 Z"/>
         </g>
        </g>
        <g class="com.sun.star.drawing.ClosedBezierShape">
         <g id="id45">
          <rect class="BoundingBox" stroke="none" fill="none" x="8485" y="4148" width="450" height="496"/>
          <path fill="rgb(0,0,0)" stroke="none" d="M 8486,4415 C 8486,4334 8509,4270 8556,4221 8603,4173 8657,4149 8718,4149 8778,4149 8829,4170 8871,4212 8912,4253 8933,4309 8933,4377 8933,4458 8909,4523 8861,4571 8814,4619 8761,4643 8702,4643 8643,4643 8592,4623 8549,4583 8507,4542 8486,4486 8486,4415 Z M 8575,4405 C 8575,4464 8589,4509 8615,4540 8642,4570 8673,4585 8708,4585 8741,4585 8772,4569 8800,4536 8829,4503 8843,4453 8843,4386 8843,4329 8830,4284 8803,4253 8776,4222 8746,4206 8711,4206 8677,4206 8646,4223 8618,4257 8590,4290 8575,4339 8575,4405 Z"/>
         </g>
        </g>
        <g class="com.sun.star.drawing.ClosedBezierShape">
         <g id="id46">
          <rect class="BoundingBox" stroke="none" fill="none" x="8989" y="4151" width="311" height="486"/>
          <path fill="rgb(0,0,0)" stroke="none" d="M 9001,4627 L 9001,4610 C 9014,4606 9026,4599 9037,4589 9048,4579 9054,4569 9054,4557 L 9054,4223 8990,4196 8990,4175 C 9012,4168 9034,4163 9055,4161 9076,4158 9094,4157 9108,4157 L 9132,4157 9132,4226 9133,4226 9161,4195 C 9174,4181 9187,4170 9202,4163 9216,4155 9231,4152 9247,4152 9265,4152 9277,4155 9286,4163 9295,4170 9299,4180 9299,4194 9299,4203 9297,4213 9294,4224 9291,4234 9288,4244 9283,4254 9274,4246 9264,4241 9253,4237 9243,4233 9232,4231 9222,4231 9207,4231 9192,4234 9177,4241 9163,4248 9149,4258 9135,4271 L 9135,4586 9203,4600 9203,4619 C 9187,4625 9169,4629 9151,4632 9132,4635 9109,4636 9080,4636 9066,4636 9052,4635 9038,4634 9025,4633 9013,4630 9001,4627 Z"/>
         </g>
        </g>
        <g class="com.sun.star.drawing.ClosedBezierShape">
         <g id="id47">
          <rect class="BoundingBox" stroke="none" fill="none" x="9306" y="4083" width="275" height="558"/>
          <path fill="rgb(0,0,0)" stroke="none" d="M 9355,4503 C 9355,4479 9355,4454 9356,4429 9357,4404 9357,4380 9358,4357 L 9361,4226 9307,4226 9307,4193 9413,4088 9446,4084 9442,4173 9572,4173 9565,4226 9439,4226 9437,4350 C 9436,4371 9436,4391 9436,4410 L 9436,4466 C 9436,4505 9441,4533 9452,4549 9463,4566 9478,4574 9496,4574 9511,4574 9524,4571 9536,4567 9548,4562 9559,4556 9569,4548 L 9579,4552 C 9577,4581 9567,4603 9550,4618 9532,4632 9506,4640 9473,4640 9433,4640 9404,4629 9384,4607 9365,4585 9355,4550 9355,4503 Z"/>
         </g>
        </g>
       </g>
      </g>
     </g>
    </g>
   </g>
  </g>
 </g>
</svg>